<svg id="button_header_notifiche" data-name="button header notifiche" xmlns="http://www.w3.org/2000/svg" width="16" height="15.958" viewBox="0 0 16 15.958">
  <path id="Tracciato_71" data-name="Tracciato 71" d="M23.039,25.408a2.645,2.645,0,0,1-2.506-1.456,3.33,3.33,0,0,1-.28-.823h-3.48a.573.573,0,0,1-.405-.978A6.325,6.325,0,0,0,17.909,18a9.453,9.453,0,0,1,.85-4.469,4.326,4.326,0,0,1,3.708-2.347V10.023a.573.573,0,1,1,1.146,0v1.159a4.326,4.326,0,0,1,3.708,2.347A9.453,9.453,0,0,1,28.17,18a6.252,6.252,0,0,0,1.541,4.152.573.573,0,0,1-.405.978h-3.48a3.33,3.33,0,0,1-.28.823A2.645,2.645,0,0,1,23.039,25.408Zm-1.6-2.279a2.012,2.012,0,0,0,.138.339,1.5,1.5,0,0,0,1.467.794,1.5,1.5,0,0,0,1.467-.794,2.01,2.01,0,0,0,.138-.339Zm3.927-1.146h2.8A7.539,7.539,0,0,1,27.024,18c0-3.938-1.229-5.694-3.985-5.694S19.055,14.061,19.055,18a7.539,7.539,0,0,1-1.135,3.985h7.355A.585.585,0,0,1,25.361,21.983Z" transform="translate(-16.2 -9.45)" fill="#232323"/>
  <circle id="Ellisse_4" data-name="Ellisse 4" cx="4" cy="4" r="4" transform="translate(8)" fill="#f0f0f0"/>
  <circle id="Ellisse_5" data-name="Ellisse 5" cx="3" cy="3" r="3" transform="translate(9 1)" fill="#dc0814"/>
</svg>
