<svg id="calendario_menu" data-name="calendario menu" xmlns="http://www.w3.org/2000/svg" width="12.889" height="12.786" viewBox="0 0 12.889 12.786">
  <g id="Raggruppa_3387" data-name="Raggruppa 3387">
    <path id="Tracciato_875" data-name="Tracciato 875" d="M2.658.036A.379.379,0,0,0,2.28.416v.66H1.133A1.173,1.173,0,0,0,0,2.278V9.8A1.172,1.172,0,0,0,1.133,11H6.1a3.64,3.64,0,1,0,5.276-4.777V2.278a1.173,1.173,0,0,0-1.134-1.2H9.092V.416a.379.379,0,1,0-.758,0v.66h-5.3V.416A.379.379,0,0,0,2.658.036Zm-1.525,1.8H2.28v.657a.378.378,0,1,0,.755,0V1.836h5.3v.657a.379.379,0,1,0,.758,0V1.836h1.148a.4.4,0,0,1,.375.442V3.727H.758V2.278a.4.4,0,0,1,.375-.442ZM.758,4.486h9.856V5.805a3.64,3.64,0,0,0-4.849,4.44H1.133A.4.4,0,0,1,.758,9.8ZM9.246,6.3a2.881,2.881,0,0,1,1.543.444l.025.016A2.887,2.887,0,1,1,9.246,6.3Zm-.213.96a.379.379,0,0,0-.378.378V9.741a.379.379,0,0,0,.378.378h1.478a.379.379,0,1,0,0-.758h-1.1V7.634a.379.379,0,0,0-.381-.378Z" transform="translate(0 -0.036)" fill-rule="evenodd"/>
  </g>
</svg>
