<svg xmlns="http://www.w3.org/2000/svg" width="308.32" height="144.02" viewBox="0 0 308.32 144.02">
  <g id="car_top" data-name="car  top" transform="translate(0 0)">
    <g id="Raggruppa_3367" data-name="Raggruppa 3367" transform="translate(0.001 0)">
      <path id="Tracciato_832" data-name="Tracciato 832" d="M3118.988,1301.023c2.508.969,4.989,1.831,7.407,2.593l1.8.553,1.777.506c.585.172,1.17.318,1.747.471s1.146.306,1.713.437l1.676.4c.552.127,1.1.242,1.64.36l.8.174c.266.056.531.1.793.157l1.55.3c.51.093,1.011.177,1.5.262s.974.172,1.45.239l1.4.208c.228.033.453.069.675.1l.663.083c.873.109,1.7.218,2.492.29s1.53.159,2.227.2,1.344.1,1.941.132,1.144.049,1.635.065c.245.007.477.016.7.019h.611q.568,0,.959-.022c.519-.025.793-.069.8-.133s-.262-.146-.771-.243c-.254-.049-.57-.1-.942-.156l-.6-.085-.684-.1c-.483-.072-1.02-.147-1.608-.227l-1.91-.284c-.686-.093-1.415-.223-2.19-.344s-1.591-.269-2.448-.418l-.65-.114c-.219-.039-.439-.084-.663-.127l-1.37-.263c-.467-.085-.939-.191-1.423-.29s-.976-.2-1.474-.309l-1.52-.345c-.257-.059-.518-.115-.779-.177l-.787-.193c-.529-.13-1.066-.257-1.609-.395l-1.646-.432c-.557-.14-1.114-.306-1.681-.463s-1.14-.314-1.714-.493l-1.745-.523-1.769-.565c-2.375-.775-4.815-1.636-7.287-2.59s-4.849-1.975-7.125-3.007l-1.687-.777-1.64-.792c-.544-.256-1.072-.531-1.6-.794s-1.048-.521-1.553-.793l-1.506-.792c-.493-.264-.975-.534-1.453-.794l-.711-.389c-.235-.13-.464-.264-.694-.395l-1.354-.772c-.441-.257-.872-.516-1.3-.767s-.844-.493-1.246-.746l-1.188-.731c-.193-.12-.386-.235-.575-.355l-.556-.356c-.733-.469-1.437-.907-2.087-1.344s-1.279-.831-1.848-1.224l-1.6-1.079q-.731-.508-1.34-.918l-.574-.386-.5-.343c-.312-.211-.58-.385-.8-.522-.44-.272-.692-.392-.733-.342s.132.267.5.635c.183.184.414.406.692.664l.45.413c.162.146.339.3.525.456q.56.479,1.25,1.055c.462.379.974.779,1.521,1.212s1.148.877,1.781,1.353,1.317.959,2.034,1.468l.545.385c.184.13.374.255.564.384l1.17.79c.4.272.812.531,1.231.8s.847.547,1.286.821l1.347.824c.229.139.458.281.691.42l.709.413c.477.276.959.561,1.453.841l1.508.836c.507.286,1.032.555,1.558.834s1.059.564,1.606.832l1.654.826,1.7.807c2.3,1.07,4.71,2.108,7.216,3.087Z" transform="translate(-3072.105 -1188.094)"/>
      <path id="Tracciato_833" data-name="Tracciato 833" d="M232.685,427.7c0,.536-.012,1.07-.022,1.6s-.02,1.064-.03,1.593-.033,1.057-.05,1.582c-.008.263-.017.525-.025.787l-.035.784q-.035.782-.07,1.559c-.023.518-.059,1.033-.087,1.546s-.055,1.025-.093,1.533-.072,1.015-.109,1.519l-.054.755c-.021.251-.043.5-.064.75q-.063.749-.126,1.49c-.043.495-.1.986-.142,1.474s-.093.976-.146,1.459-.108.964-.161,1.443-.105.955-.164,1.425q-.173,1.413-.383,2.781a50.839,50.839,0,0,1-1.075,5.256,30.509,30.509,0,0,1-1.652,4.729,20.828,20.828,0,0,1-2.342,3.995,18.418,18.418,0,0,1-1.41,1.659,12.783,12.783,0,0,1-1.538,1.362,9.312,9.312,0,0,1-3.387,1.616,12.754,12.754,0,0,1-3.415.317,26.42,26.42,0,0,1-3.054-.289c-.941-.138-1.8-.292-2.575-.435-1.548-.292-2.752-.531-3.574-.668s-1.262-.182-1.277-.119.394.228,1.187.484,1.971.609,3.505,1.012c.768.2,1.627.409,2.58.6a25.164,25.164,0,0,0,3.153.455,13.455,13.455,0,0,0,3.732-.2,10.07,10.07,0,0,0,1.984-.629,10.935,10.935,0,0,0,1.911-1.075,13.954,13.954,0,0,0,1.748-1.46A19.384,19.384,0,0,0,227,466.651a21.929,21.929,0,0,0,2.606-4.224,31.341,31.341,0,0,0,1.832-4.947,50.911,50.911,0,0,0,1.19-5.416q.236-1.4.424-2.832c.065-.478.122-.957.181-1.44s.117-.968.177-1.455.106-.979.16-1.472.109-.989.156-1.488.092-1,.138-1.5l.069-.758c.02-.253.04-.508.06-.762q.059-.764.119-1.534c.041-.513.067-1.03.1-1.548s.068-1.039.094-1.561.051-1.048.076-1.574l.037-.792c.009-.264.018-.529.027-.8q.027-.8.054-1.6t.033-1.609c.01-.538.023-1.078.022-1.619s.005-1.081.007-1.62-.008-1.075-.011-1.61-.007-1.068-.02-1.6-.026-1.06-.038-1.588c-.007-.264-.011-.526-.021-.789s-.02-.524-.03-.786q-.03-.784-.061-1.563t-.082-1.55c-.029-.514-.051-1.027-.089-1.536-.072-1.019-.131-2.029-.22-3.028q-.062-.75-.124-1.491t-.142-1.474c-.183-1.954-.408-3.875-.7-5.744a48.465,48.465,0,0,0-1.16-5.428,30.91,30.91,0,0,0-1.825-4.951,22.393,22.393,0,0,0-2.589-4.229,20.459,20.459,0,0,0-1.551-1.762,14.712,14.712,0,0,0-1.708-1.491,11.471,11.471,0,0,0-1.869-1.134,10.733,10.733,0,0,0-1.951-.712,12.077,12.077,0,0,0-1.911-.332,15.921,15.921,0,0,0-1.795-.075,27.644,27.644,0,0,0-3.171.227c-.964.118-1.837.257-2.618.394-1.563.273-2.765.529-3.577.72s-1.233.325-1.222.388.452.055,1.282-.017,2.05-.211,3.617-.371c.783-.08,1.653-.164,2.6-.228a29.5,29.5,0,0,1,3.074-.069,15.525,15.525,0,0,1,1.678.141,11.056,11.056,0,0,1,1.725.367,9.664,9.664,0,0,1,1.708.691,10.309,10.309,0,0,1,1.627,1.059,16.477,16.477,0,0,1,2.913,3.078,21.414,21.414,0,0,1,2.33,4.007,29.987,29.987,0,0,1,1.645,4.73,48.194,48.194,0,0,1,1.044,5.258c.266,1.824.466,3.709.63,5.65q.063.727.127,1.461t.111,1.477c.08.989.133,1.99.2,3,.035.5.054,1.012.08,1.521s.049,1.021.073,1.535.036,1.03.054,1.548c.009.259.018.518.028.779s.012.521.019.781q.017.783.034,1.572c.012.526.011,1.054.017,1.582s.014,1.06.009,1.593-.005,1.067-.008,1.6Z" transform="translate(58.867 -355.473)"/>
      <path id="Tracciato_834" data-name="Tracciato 834" d="M1242.167,510.992c-23.593-.784-42.732-1.062-42.747-.624s19.1,1.43,42.691,2.213,42.732,1.063,42.747.623-19.1-1.43-42.691-2.213Z" transform="translate(-1063.399 -473.212)"/>
      <path id="Tracciato_835" data-name="Tracciato 835" d="M1257.787,1400.036c-5.875.186-11.469.5-16.548.892l-3.708.316-.9.078c-.3.027-.589.06-.881.089l-1.719.178-1.66.175c-.543.059-1.077.11-1.6.177l-3,.375c-1.912.229-3.633.5-5.145.734-.756.118-1.459.224-2.1.336s-1.234.225-1.763.327c-2.115.406-3.274.692-3.254.819s1.215.085,3.357-.1q.8-.07,1.78-.164l2.118-.182c1.52-.131,3.245-.312,5.159-.457l3-.254c.521-.049,1.054-.08,1.6-.122l1.658-.122,1.715-.129.879-.065.893-.056,3.7-.237c5.063-.294,10.632-.556,16.484-.742s11.43-.264,16.506-.323l3.709-.033c1.2-.017,2.37-.013,3.5-.022l6.283-.034c1.921-.017,3.66-.02,5.186-.039l2.128-.031c.654-.01,1.252-.022,1.79-.035,2.151-.057,3.344-.148,3.347-.277s-1.181-.283-3.328-.45c-.537-.042-1.134-.085-1.787-.128s-1.364-.081-2.127-.123c-1.526-.08-3.265-.17-5.187-.238l-3.018-.107c-1.049-.035-2.142-.058-3.274-.087s-2.3-.059-3.507-.072l-3.719-.046c-5.09-.035-10.689,0-16.564.177Z" transform="translate(-1080.005 -1298.468)"/>
      <path id="Tracciato_836" data-name="Tracciato 836" d="M2858.72,165.928c2.152-.1,4.291-.141,6.408-.172l6.268-.1c4.11-.067,8.075-.142,11.852-.222,7.554-.161,14.355-.344,20.067-.539,11.423-.39,18.487-.823,18.481-1.21s-7.076-.653-18.505-.771c-5.715-.059-12.519-.08-20.074-.062-3.778.009-7.743.029-11.853.059l-6.271.054c-2.127.022-4.3.061-6.5.161q-1.652.074-3.289.2c-1.09.087-2.175.193-3.251.33s-2.144.295-3.2.488-2.1.421-3.129.679a36.718,36.718,0,0,0-5.933,2.037l-.353.159c-.117.052-.233.106-.349.164l-.69.337c-.228.117-.452.238-.677.356s-.445.244-.665.37c-.443.246-.867.517-1.292.781-.209.137-.416.278-.623.416-.1.07-.208.137-.308.21l-.3.219a29.859,29.859,0,0,0-4.308,3.815,34.288,34.288,0,0,0-3.344,4.219,41.3,41.3,0,0,0-2.537,4.3c-.73,1.42-1.353,2.82-1.887,4.171s-.991,2.656-1.389,3.9-.729,2.423-1.025,3.528c-.582,2.214-1,4.135-1.309,5.708s-.512,2.8-.621,3.641-.118,1.291-.023,1.314.289-.385.573-1.182.66-1.981,1.129-3.507,1.039-3.389,1.753-5.525c.362-1.066.754-2.2,1.207-3.391s.956-2.431,1.531-3.712,1.223-2.595,1.967-3.922a41.721,41.721,0,0,1,2.536-3.989,33.218,33.218,0,0,1,3.223-3.848,28.162,28.162,0,0,1,4.017-3.409l.275-.195c.092-.065.189-.123.284-.185l.572-.369c.392-.232.782-.474,1.188-.691.2-.112.4-.225.611-.328s.414-.213.623-.316l.636-.3c.106-.051.213-.1.322-.145l.325-.141a34.921,34.921,0,0,1,5.522-1.824q1.45-.351,2.953-.617c1-.176,2.02-.322,3.051-.448s2.074-.225,3.13-.307,2.121-.147,3.2-.195Z" transform="translate(-2817.558 -151.054)"/>
      <path id="Tracciato_837" data-name="Tracciato 837" d="M14.556,366.792c.029,1.845.006,3.668-.025,5.465q-.02.674-.038,1.342c-.014.445-.022.89-.044,1.332-.04.883-.07,1.761-.125,2.63-.192,3.475-.486,6.821-.857,10q-.148,1.191-.293,2.352c-.1.772-.207,1.532-.322,2.278-.227,1.491-.477,2.929-.775,4.3A39.864,39.864,0,0,1,9.786,403.9a28.211,28.211,0,0,1-1.508,3,25.012,25.012,0,0,1-1.661,2.5,22.843,22.843,0,0,1-1.686,2c-.282.286-.545.57-.818.816l-.391.371-.387.335c-.126.108-.246.218-.368.317l-.358.284-.335.268-.323.235c-.41.314-.779.547-1.067.758l-.106.076-.1.067-.183.123q-.168.117-.278.207c-.146.12-.212.2-.193.248s.124.048.311.012c.094-.018.209-.046.344-.083.067-.019.14-.04.218-.064.039-.012.08-.024.12-.038l.125-.048a11.469,11.469,0,0,0,1.246-.55l.375-.19c.127-.07.256-.148.39-.226l.415-.246c.142-.086.281-.185.427-.282l.45-.3.456-.344c.317-.23.625-.5.954-.776a21.1,21.1,0,0,0,1.975-1.972,24.122,24.122,0,0,0,1.958-2.544,27.544,27.544,0,0,0,1.8-3.12,38.8,38.8,0,0,0,2.756-7.711c.361-1.422.666-2.9.942-4.426.14-.763.266-1.536.391-2.32s.234-1.579.353-2.384c.448-3.224.8-6.626,1.036-10.162.065-.884.1-1.776.151-2.677.026-.45.038-.9.055-1.356s.032-.91.047-1.367c.041-1.83.07-3.687.04-5.566s-.086-3.735-.169-5.564c-.1-1.827-.217-3.628-.379-5.392q-.06-.662-.119-1.317t-.128-1.295q-.128-1.289-.265-2.555-.273-2.53-.594-4.951c-.431-3.223-.947-6.283-1.575-9.122a65.712,65.712,0,0,0-2.2-7.8c-.416-1.17-.847-2.274-1.3-3.3s-.916-1.978-1.387-2.848a30.244,30.244,0,0,0-2.746-4.263c-.43-.549-.836-1.018-1.206-1.407a13.478,13.478,0,0,0-.98-.939c-.56-.476-.9-.668-.968-.6s.139.4.55.981c.206.292.458.653.748,1.081s.612.931.957,1.5a39.538,39.538,0,0,1,2.239,4.335c.387.868.765,1.813,1.14,2.825s.728,2.1,1.07,3.246a73.75,73.75,0,0,1,1.8,7.649c.515,2.786.935,5.793,1.289,8.976q.266,2.388.493,4.9l.226,2.542q.055.643.112,1.292t.1,1.3c.142,1.734.241,3.5.331,5.3.072,1.8.138,3.617.152,5.463Z" transform="translate(290.952 -292.55)"/>
      <path id="Tracciato_838" data-name="Tracciato 838" d="M285.316,151.854c12.646.164,24.685.524,35.623,1.077l7.988.456.968.055.96.068,1.9.135,3.7.26c2.428.161,4.778.35,7.033.526s4.417.356,6.477.542,4.021.376,5.873.574,3.595.407,5.223.616,3.14.428,4.531.635c.681.109,1.325.222,1.932.376.306.067.6.156.884.232.143.04.282.087.42.13s.276.083.408.132a18.5,18.5,0,0,1,2.749,1.195,21.031,21.031,0,0,1,1.891,1.156c.246.173.469.322.653.459l.475.335c.258.18.407.256.441.222s-.049-.179-.246-.431c-.1-.128-.229-.274-.39-.447s-.356-.364-.582-.579a15.041,15.041,0,0,0-1.813-1.428,16.84,16.84,0,0,0-2.79-1.5c-.136-.062-.279-.113-.421-.17s-.288-.115-.436-.167c-.3-.1-.6-.216-.921-.308-.631-.2-1.312-.365-2.017-.519-1.389-.288-2.9-.586-4.533-.87s-3.379-.567-5.236-.835-3.823-.527-5.889-.776-4.232-.489-6.487-.724-4.6-.476-7.036-.688l-3.714-.334-1.9-.169-.962-.085-.97-.071-8.013-.576-8.43-.474c-.718-.043-1.44-.071-2.167-.1l-2.189-.092-4.442-.183-1.123-.046-1.128-.033-2.27-.066-4.6-.131-1.159-.032-1.164-.021-2.34-.041-4.725-.081c-12.679-.167-24.754-.066-35.73.1s-20.856.41-29.152.629-15.008.419-19.647.6-7.205.372-7.205.565,2.567.371,7.21.526,11.363.25,19.664.287,18.184,0,29.153-.028,23.024-.051,35.67.116Z" transform="translate(-81.154 -138.179)"/>
      <path id="Tracciato_839" data-name="Tracciato 839" d="M3848.358,266.607a17.552,17.552,0,0,0-2.214.117,18.525,18.525,0,0,0-4.187,1.024c-.333.119-.657.255-.98.389s-.638.281-.947.437a24.557,24.557,0,0,0-6.412,4.606,26.95,26.95,0,0,0-2.426,2.754c-.089.119-.182.235-.268.354l-.255.357c-.168.238-.338.471-.5.708l-.467.713-.23.352-.216.357a42.64,42.64,0,0,0-2.783,5.453c-.732,1.716-1.3,3.3-1.765,4.7s-.828,2.609-1.1,3.606c-.554,1.992-.786,3.113-.666,3.153s.591-1.007,1.354-2.92c.381-.957.843-2.127,1.394-3.475s1.2-2.872,1.989-4.513a46.064,46.064,0,0,1,2.889-5.171l.217-.335.23-.329.464-.668c.162-.22.33-.438.5-.66l.251-.333c.083-.112.173-.217.261-.327a26.274,26.274,0,0,1,2.333-2.534,23.54,23.54,0,0,1,6.01-4.193c.284-.14.577-.264.87-.392s.592-.241.894-.347a17.081,17.081,0,0,1,3.775-.906,16.05,16.05,0,0,1,1.969-.1c.184.007.369.007.551.017l.546.036-.446-1.7A45.661,45.661,0,0,0,3837.8,277.8a44.937,44.937,0,0,0-3.565,5.828c-.128.235-.237.477-.353.713l-.339.7c-.115.23-.214.466-.316.7l-.3.688c-.4.91-.723,1.79-1.063,2.6-.168.406-.337.8-.513,1.17-.086.188-.178.368-.266.547l-.138.262c-.044.088-.091.172-.14.256-.185.339-.386.65-.587.948-.052.072-.1.145-.156.216l-.077.107-.081.1-.16.2q-.081.1-.162.189a7.049,7.049,0,0,1-1.393,1.2,6.293,6.293,0,0,1-1.393.689,5.028,5.028,0,0,1-2.134.269c-.5-.047-.772-.124-.8-.059-.023.05.2.245.723.421a3.873,3.873,0,0,0,1.006.183,5.055,5.055,0,0,0,1.4-.125,7.078,7.078,0,0,0,3.336-1.868c.067-.067.135-.135.2-.206l.193-.214.1-.109.093-.113.189-.23a12.264,12.264,0,0,0,.708-1q.087-.131.167-.269l.164-.275c.105-.186.214-.375.315-.568.207-.386.4-.786.6-1.2.391-.82.752-1.683,1.171-2.546l.316-.655c.106-.22.211-.445.331-.663l.351-.668c.12-.224.232-.455.364-.677a46.878,46.878,0,0,1,3.588-5.536,46.437,46.437,0,0,1,10.867-10.443l.018-.013a.927.927,0,0,0-.464-1.687l-.616-.042c-.206-.012-.415-.012-.622-.019Z" transform="translate(-3818.995 -247.297)"/>
      <path id="Tracciato_840" data-name="Tracciato 840" d="M2029.138,255.757a10.561,10.561,0,0,0-.426-1.724c-.182-.551-.393-1.085-.624-1.608a26.158,26.158,0,0,0-1.583-3.013,23.564,23.564,0,0,0-1.975-2.8c-.187-.225-.382-.447-.592-.666a8.449,8.449,0,0,0-.689-.652c-.062-.054-.134-.108-.2-.162l-.111-.08-.056-.041-.106-.066c-.036-.021-.072-.042-.109-.062l-.088-.041c-.058-.026-.123-.056-.171-.072l-.154-.056-.141-.043a8.793,8.793,0,0,0-1.007-.221c-.633-.105-1.238-.172-1.841-.23s-1.2-.1-1.785-.143c-1.179-.078-2.342-.133-3.491-.178-2.3-.088-4.543-.137-6.732-.17s-4.322-.049-6.393-.059l-6.017-.025c-3.885-.027-7.5-.043-10.808-.05-6.609-.012-19.3.013-23,.067s-5.742.146-5.744.275,2.038.284,5.73.452,16.385.346,22.989.527c3.3.091,6.918.184,10.8.278,1.948.049,3.957.08,6.023.119s4.193.081,6.371.138,4.407.126,6.677.232c1.134.054,2.278.116,3.424.2.573.042,1.146.09,1.715.148s1.135.125,1.669.217a6.686,6.686,0,0,1,.723.159l.07.021.052.02a.15.15,0,0,1,.03.013l.011,0-.017-.007a.058.058,0,0,1-.014-.011l.03.022.061.044c.042.035.083.064.127.1a8.646,8.646,0,0,1,1.025,1.073,22,22,0,0,1,1.805,2.587,24.918,24.918,0,0,1,1.469,2.813c.211.481.4.968.563,1.456a9.01,9.01,0,0,1,.361,1.452,4.442,4.442,0,0,1,.052.682,1.955,1.955,0,0,1-.078.564.364.364,0,0,1-.019.054l-.02.051a.787.787,0,0,1-.043.08.71.71,0,0,1-.041.06c-.015.012-.025.03-.039.038s-.029.019-.034.027a.383.383,0,0,1,.063-.033h0l-.019.005-.02.007-.033.007c-.023.005-.041.011-.072.016l-.083.017-.092.015c-.25.041-.54.07-.829.1s-.589.044-.887.06c-.6.033-1.2.053-1.809.067-2.423.056-4.835.041-7.2.016s-4.7-.073-6.98-.126-4.521-.11-6.693-.18-4.271-.182-6.3-.365-3.984-.436-5.842-.784c-1.648-.312-29.493-8.138-35.443-9.819a.123.123,0,0,0-.083.232c5.742,2.286,33.416,10.741,35.124,11.1,1.93.4,3.949.689,6.031.907s4.229.361,6.427.453,4.425.171,6.715.243,4.627.133,7.01.173,4.811.063,7.3.012c.622-.014,1.248-.033,1.883-.067.318-.017.638-.036.964-.064s.655-.059,1.018-.117l.137-.022.145-.028c.046-.009.1-.022.154-.035l.081-.02.09-.026.092-.028.111-.041a1.927,1.927,0,0,0,.268-.127,2.487,2.487,0,0,0,.593-.5,2.416,2.416,0,0,0,.205-.284,2.523,2.523,0,0,0,.153-.287c.021-.047.039-.093.057-.141s.036-.094.049-.14a3.545,3.545,0,0,0,.157-1.041,5.944,5.944,0,0,0-.069-.941Z" transform="translate(-1862.421 -225.948)"/>
      <path id="Tracciato_841" data-name="Tracciato 841" d="M2029.138,1524.524a10.559,10.559,0,0,1-.426,1.724c-.182.551-.393,1.085-.624,1.608a26.163,26.163,0,0,1-1.583,3.013,23.582,23.582,0,0,1-1.975,2.8c-.187.224-.382.447-.592.666a8.438,8.438,0,0,1-.689.652c-.062.054-.134.108-.2.162l-.111.081-.056.041-.106.066c-.036.021-.072.042-.109.061l-.088.042c-.058.026-.123.056-.171.072l-.154.056-.141.044a8.826,8.826,0,0,1-1.007.221c-.633.1-1.238.172-1.841.23s-1.2.1-1.785.143c-1.179.078-2.342.133-3.491.178-2.3.088-4.543.137-6.732.17s-4.322.049-6.393.059l-6.017.025c-3.885.027-7.5.043-10.808.05-6.609.012-19.3-.013-23-.067s-5.742-.146-5.744-.275,2.038-.284,5.73-.452,16.385-.346,22.989-.527c3.3-.091,6.918-.184,10.8-.278,1.948-.049,3.957-.08,6.023-.119s4.193-.081,6.371-.137,4.407-.126,6.677-.232c1.134-.053,2.278-.116,3.424-.2.573-.042,1.146-.09,1.715-.148s1.135-.125,1.669-.217a6.717,6.717,0,0,0,.723-.158l.07-.021.052-.02a.154.154,0,0,0,.03-.013l.011,0-.017.007a.059.059,0,0,0-.014.011l.03-.022.061-.044c.042-.035.083-.064.127-.1a8.667,8.667,0,0,0,1.025-1.073,21.991,21.991,0,0,0,1.805-2.587,24.927,24.927,0,0,0,1.469-2.813c.211-.481.4-.968.563-1.456a9,9,0,0,0,.361-1.452,4.44,4.44,0,0,0,.052-.683,1.957,1.957,0,0,0-.078-.564.36.36,0,0,0-.019-.054l-.02-.051a.812.812,0,0,0-.043-.08.7.7,0,0,0-.041-.06c-.015-.012-.025-.03-.039-.038s-.029-.019-.034-.027a.373.373,0,0,0,.063.032h0l-.019,0-.02-.007-.033-.007c-.023-.005-.041-.011-.072-.016l-.083-.017-.092-.015c-.25-.041-.54-.07-.829-.1s-.589-.044-.887-.06c-.6-.032-1.2-.053-1.809-.068-2.423-.056-4.835-.041-7.2-.016s-4.7.073-6.98.126-4.521.11-6.693.18-4.271.182-6.3.365-3.984.436-5.842.784c-1.648.312-29.493,8.138-35.443,9.819a.123.123,0,0,1-.083-.232c5.742-2.286,33.416-10.741,35.124-11.1,1.93-.4,3.949-.69,6.031-.907s4.229-.361,6.427-.452,4.425-.171,6.715-.243,4.627-.133,7.01-.173,4.811-.063,7.3-.012c.622.014,1.248.033,1.883.067.318.017.638.036.964.064s.655.059,1.018.116l.137.022.145.028c.046.009.1.022.154.035l.081.02.09.026.092.028.111.04a1.973,1.973,0,0,1,.268.127,2.295,2.295,0,0,1,.8.782,2.543,2.543,0,0,1,.153.287c.021.047.039.094.057.141s.036.094.049.14a3.544,3.544,0,0,1,.157,1.041,5.944,5.944,0,0,1-.069.941Z" transform="translate(-1862.421 -1410.463)"/>
      <path id="Tracciato_842" data-name="Tracciato 842" d="M986.851,260.429l-1.317-3.582-.322-.877a.529.529,0,0,1-.025-.145.456.456,0,0,1,.027-.14.435.435,0,0,1,.188-.222.355.355,0,0,1,.132-.047.5.5,0,0,1,.075-.008h.225q3.743.043,7.37.056c4.831.016,9.489,0,13.926-.033,8.874-.064,16.862-.172,23.569-.254l9.052-.109,1.925-.022a11.777,11.777,0,0,1,1.711.117,15.119,15.119,0,0,1,2.94.746c.868.308,1.619.647,2.269.949s1.2.577,1.649.784a5.8,5.8,0,0,0,1.073.4,1.074,1.074,0,0,0,.3.03c.07-.009.1-.022.1-.038s-.032-.035-.089-.057-.142-.06-.252-.114c-.22-.108-.54-.3-.958-.555s-.938-.583-1.57-.945a21.56,21.56,0,0,0-2.26-1.133,15.006,15.006,0,0,0-3.059-.947,12.344,12.344,0,0,0-1.842-.207l-1.933-.053c-2.667-.07-5.7-.123-9.058-.167-6.712-.088-14.7-.117-23.573-.146-4.435-.017-9.089-.035-13.913-.075q-3.617-.03-7.355-.084h-.242a2.366,2.366,0,0,0-.39.033,2.21,2.21,0,0,0-.746.264,2.288,2.288,0,0,0-1.156,1.96,2.369,2.369,0,0,0,.13.781l.329.9,1.314,3.583,2.121,5.767-.041-.146A3.745,3.745,0,0,0,990.4,269.7l1.763.185.874.091c.291.03.582.049.871.074l1.732.14.431.035.43.027.857.052,1.7.1,1.688.073c4.481.188,8.79.214,12.885.138s7.974-.262,11.594-.558c1.81-.144,3.555-.33,5.229-.546l.313-.038.312-.047.618-.095.611-.094.3-.047.151-.023.151-.03,1.188-.233.292-.058c.1-.018.2-.046.294-.068.2-.046.389-.1.58-.15.761-.211,1.482-.455,2.176-.71s1.361-.522,2-.8c1.28-.551,2.459-1.123,3.541-1.7a36.171,36.171,0,0,0,5.29-3.365,14.327,14.327,0,0,0,2.818-2.791c.53-.747.671-1.215.625-1.236-.064-.033-.307.366-.9,1.01a17.785,17.785,0,0,1-2.951,2.459,40.6,40.6,0,0,1-5.331,3.032c-1.081.52-2.256,1.038-3.522,1.535q-.948.374-1.967.715c-.678.227-1.379.441-2.1.619-.18.044-.361.088-.542.125-.091.018-.18.041-.274.056l-.284.048-1.151.2-.146.025-.148.02-.3.038-.6.077-.605.079-.3.039-.309.031c-1.65.175-3.375.323-5.17.432-3.588.225-7.441.346-11.507.374s-8.344-.043-12.781-.26l-1.672-.083-1.684-.112-.847-.056-.425-.028-.425-.036-1.708-.146c-.285-.026-.573-.046-.859-.077l-.859-.093-1.724-.188a1.889,1.889,0,0,1-1.621-1.522.946.946,0,0,0-.038-.139l0-.007-2.115-5.769Z" transform="translate(-814.621 -235.186)"/>
      <path id="Tracciato_843" data-name="Tracciato 843" d="M3040.486,374.768c-.014,3.35.079,6.621.255,9.775q.075,1.182.148,2.343.1,1.159.189,2.294c.057.758.141,1.5.216,2.244s.145,1.47.239,2.189.177,1.431.263,2.132.2,1.39.293,2.071q.074.509.146,1.012c.051.335.108.666.161.994q.163.986.321,1.94c.112.635.231,1.257.345,1.869s.221,1.212.348,1.8.243,1.159.36,1.721c.06.28.116.558.178.832s.126.543.188.81c.249,1.068.48,2.084.734,3.038s.473,1.858.721,2.692.462,1.614.681,2.326.436,1.358.629,1.939c.1.29.188.564.28.82s.183.493.266.714c.169.441.319.812.449,1.109.261.594.442.892.534.865s.094-.377.009-1.019c-.042-.321-.106-.714-.189-1.176s-.185-.994-.3-1.592-.242-1.261-.389-1.985-.289-1.514-.452-2.36-.324-1.753-.5-2.712-.349-1.977-.533-3.044l-.14-.81c-.046-.273-.086-.55-.131-.83q-.131-.84-.27-1.715c-.1-.582-.173-1.18-.262-1.787s-.178-1.226-.264-1.856-.161-1.272-.245-1.924c-.042-.326-.086-.654-.125-.985s-.074-.666-.112-1c-.074-.673-.156-1.355-.228-2.047s-.135-1.4-.2-2.106-.125-1.432-.186-2.161-.126-1.466-.169-2.212-.1-1.5-.148-2.261l-.115-2.307c-.137-3.1-.208-6.322-.195-9.618s.134-6.511.307-9.615q.07-1.163.141-2.306.089-1.141.175-2.259c.052-.746.128-1.482.194-2.21s.127-1.449.211-2.159.153-1.411.228-2.1.17-1.372.251-2.045q.063-.5.123-1c.043-.331.091-.658.136-.983q.136-.977.267-1.921c.093-.629.193-1.246.285-1.853s.179-1.2.282-1.784.195-1.153.29-1.711c.048-.28.091-.556.14-.829l.149-.807c.2-1.065.372-2.081.568-3.038s.354-1.865.535-2.706.332-1.631.479-2.355.292-1.384.412-1.981l.315-1.588c.089-.461.156-.854.2-1.174.092-.64.1-.991,0-1.019s-.277.268-.545.859q-.2.443-.462,1.1-.131.329-.276.71c-.095.254-.188.528-.29.817q-.3.868-.652,1.931c-.228.709-.458,1.485-.708,2.318s-.491,1.732-.752,2.683-.509,1.965-.77,3.029l-.2.808c-.065.273-.124.55-.187.83l-.38,1.716c-.134.584-.245,1.183-.369,1.793s-.248,1.231-.366,1.865-.227,1.28-.344,1.937c-.057.328-.118.659-.172.993s-.1.671-.158,1.01c-.1.679-.216,1.367-.317,2.067s-.19,1.41-.287,2.129-.178,1.448-.265,2.186-.176,1.485-.241,2.241-.142,1.521-.216,2.292q-.087,1.159-.175,2.341c-.212,3.151-.344,6.421-.369,9.771Z" transform="translate(-2960.922 -303.627)"/>
      <path id="Tracciato_844" data-name="Tracciato 844" d="M2436.172,372.4c-.017.4-.036.806-.049,1.211s-.02.814-.029,1.22c-.005.2-.01.406-.014.608s-.011.4-.009.607q0,.606,0,1.211,0,.3,0,.6l0,.3.009.3q.018.6.036,1.2c.016.8.073,1.593.114,2.383.192,3.161.542,6.253,1,9.257a158.652,158.652,0,0,0,3.658,16.927l.811-.615a.968.968,0,0,1-.115-.09c-.018-.016-.035-.033-.051-.05s-.042-.038-.062-.058c-.043-.041-.084-.083-.123-.127l-.058-.067-.071-.077-.058-.067h0l0,0-.019.015c-.035.026-.1.064-.159.1-.134.078-.3.161-.469.24-.342.159-.714.31-1.088.454-.752.288-1.524.55-2.291.8-1.539.5-3.068.956-4.565,1.389-3,.864-5.869,1.638-8.578,2.36-5.418,1.439-10.185,2.661-14.12,3.695s-7.041,1.867-9.153,2.485-3.231,1.016-3.2,1.151,1.208,0,3.375-.372,5.325-.974,9.312-1.793,8.8-1.853,14.28-3.131c2.738-.641,5.642-1.342,8.688-2.144,1.523-.4,3.081-.83,4.673-1.315.8-.243,1.6-.5,2.422-.8.411-.15.824-.308,1.254-.5.216-.1.435-.2.67-.331.12-.069.243-.141.383-.239a2.905,2.905,0,0,0,.229-.181l.031-.027.035-.033.069-.07c.021-.02.05-.054.077-.085s.053-.064.078-.1a1.222,1.222,0,0,0,.215-1.03l-.01-.042a169.442,169.442,0,0,1-3.4-16.7c-.424-2.937-.747-5.949-.922-9.016-.037-.767-.09-1.537-.1-2.311q-.017-.58-.033-1.162l-.008-.291v-.292c0-.195,0-.389,0-.584q0-.584,0-1.171c0-.2,0-.391.009-.587s.01-.392.015-.588q.014-.588.029-1.178c.013-.4.033-.8.049-1.195.278-6.419.762-12.661,1.517-18.594.38-2.966.83-5.855,1.389-8.637q.223-1.039.443-2.063.249-1.015.495-2.015c.181-.66.371-1.311.553-1.96.2-.638.416-1.267.621-1.893l.018-.054a1.256,1.256,0,0,0-.784-1.582,1.08,1.08,0,0,0-.116-.033c-3.3-.756-6.451-1.579-9.455-2.4-1.5-.4-2.964-.822-4.388-1.221l-4.152-1.191c-2.687-.775-5.209-1.509-7.552-2.173-1.172-.332-2.3-.651-3.377-.947l-1.582-.435-1.511-.4c-3.927-1.042-7.056-1.771-9.21-2.191-.537-.111-1.016-.192-1.43-.261s-.764-.12-1.047-.156c-.567-.071-.867-.075-.883-.007s.254.2.789.4c.268.1.6.216,1,.347l1.38.446c2.085.663,5.136,1.618,8.99,2.865l1.483.479,1.556.509,3.327,1.09c2.312.758,4.807,1.579,7.475,2.438,1.333.432,2.712.866,4.13,1.313s2.879.894,4.384,1.337c3.006.893,6.176,1.787,9.51,2.61l-.882-1.669c-.229.662-.466,1.328-.692,2-.2.678-.411,1.359-.61,2.048q-.269,1.038-.543,2.089-.24,1.056-.484,2.126c-.61,2.858-1.1,5.805-1.508,8.821s-.739,6.1-1,9.246-.467,6.343-.606,9.59Z" transform="translate(-2309.338 -300.779)"/>
      <path id="Tracciato_845" data-name="Tracciato 845" d="M526.765,452.8c.012-2.935-.07-5.8-.224-8.561q-.065-1.035-.13-2.052-.084-1.014-.165-2.01c-.05-.663-.124-1.317-.188-1.965s-.127-1.288-.209-1.918-.154-1.253-.23-1.867-.172-1.217-.256-1.813q-.065-.447-.128-.886c-.044-.293-.094-.583-.141-.871q-.143-.864-.282-1.7c-.1-.556-.2-1.1-.3-1.637s-.194-1.062-.306-1.574-.213-1.015-.316-1.506c-.053-.245-.1-.489-.156-.729l-.165-.71c-.219-.934-.422-1.824-.647-2.659s-.418-1.626-.635-2.356-.409-1.413-.6-2.035-.386-1.188-.559-1.7c-.087-.253-.168-.493-.25-.717s-.163-.431-.239-.624c-.151-.385-.287-.709-.4-.968-.237-.518-.405-.776-.5-.75s-.106.336-.046.9c.03.282.079.628.145,1.033l.237,1.4c.091.525.2,1.107.318,1.741s.24,1.327.373,2.069.269,1.536.419,2.376.29,1.732.445,2.666c.038.233.077.47.117.709s.072.482.109.726q.111.734.226,1.5c.082.51.145,1.033.219,1.564s.15,1.073.221,1.624l.206,1.683c.034.285.072.572.105.862s.062.582.094.876c.062.589.131,1.185.191,1.79s.113,1.22.171,1.842.1,1.252.156,1.889.106,1.282.142,1.934.083,1.311.125,1.976.064,1.338.1,2.017c.115,2.714.175,5.526.164,8.407s-.114,5.692-.259,8.4q-.06,1.017-.119,2.016-.075,1-.148,1.975c-.043.653-.108,1.3-.164,1.932s-.107,1.267-.177,1.887-.129,1.235-.192,1.839-.143,1.2-.212,1.788q-.052.441-.1.876c-.035.29-.077.576-.114.86q-.114.854-.224,1.681c-.078.55-.162,1.09-.24,1.621s-.15,1.053-.238,1.561-.164,1.01-.243,1.5c-.04.244-.076.487-.118.726s-.084.474-.125.708c-.165.932-.311,1.823-.475,2.66s-.294,1.633-.446,2.371-.275,1.43-.4,2.065-.241,1.214-.338,1.737-.18.989-.253,1.394-.123.75-.156,1.032c-.067.563-.058.873.035.9s.264-.229.507-.744c.122-.257.26-.579.416-.962.077-.192.16-.4.246-.621s.168-.461.258-.714q.268-.758.579-1.689c.2-.621.4-1.3.626-2.029s.433-1.516.663-2.349.447-1.72.677-2.652c.057-.233.114-.469.173-.708s.109-.482.164-.726q.163-.735.334-1.5c.117-.511.215-1.036.324-1.57s.217-1.078.321-1.633.2-1.121.3-1.7c.05-.288.1-.577.151-.869l.138-.885c.091-.595.189-1.2.277-1.81s.167-1.235.251-1.865.156-1.269.231-1.915.154-1.3.211-1.963.125-1.332.188-2.008.1-1.361.153-2.05c.186-2.76.3-5.623.322-8.558Z" transform="translate(-256.044 -381.414)"/>
      <path id="Tracciato_846" data-name="Tracciato 846" d="M631.585,447.908q.022-.531.044-1.062t.025-1.071c0-.178.009-.356.012-.534s.01-.356.007-.533q0-.532,0-1.062,0-.265,0-.53l0-.264-.008-.264q-.016-.528-.032-1.053c-.014-.7-.064-1.4-.1-2.091-.169-2.773-.477-5.484-.88-8.118a138.417,138.417,0,0,0-3.215-14.825l-.871.569a1.266,1.266,0,0,1,.222.173,1.247,1.247,0,0,1,.093.1l.043.055.069.069c.045.047.089.095.131.143a.4.4,0,0,0,.032.037h0s0,0,0,0c.038-.022.064-.046.127-.08.028-.016.051-.032.084-.048l.1-.051c.062-.034.138-.068.209-.1.293-.137.613-.268.937-.394.653-.25,1.324-.481,1.993-.7,1.341-.44,2.676-.839,3.982-1.221,2.617-.76,5.126-1.443,7.491-2.079,4.733-1.27,8.9-2.352,12.332-3.269s6.146-1.661,7.987-2.217,2.815-.92,2.783-1.054-1.065-.031-2.963.278-4.662.823-8.15,1.528-7.7,1.6-12.5,2.706c-2.4.556-4.938,1.166-7.605,1.865-1.333.351-2.7.724-4.095,1.147-.7.213-1.4.438-2.126.7-.362.133-.727.272-1.109.441-.1.044-.19.084-.293.136l-.151.075c-.051.025-.106.058-.159.088-.1.054-.228.136-.347.216-.071.052-.146.113-.216.172l-.027.022-.037.036c-.025.025-.049.05-.072.076-.048.051-.094.1-.137.16a1.159,1.159,0,0,0-.219.993l.016.064c1.131,4.581,2.218,9.46,2.956,14.6.369,2.568.65,5.2.8,7.881.032.671.078,1.344.089,2.019q.014.507.028,1.016l.007.255v.255c0,.17,0,.34,0,.511,0,.34,0,.681,0,1.023,0,.171,0,.342-.008.513s-.009.343-.013.513q-.013.514-.025,1.03t-.043,1.046c-.243,5.618-.664,11.078-1.32,16.266-.33,2.593-.721,5.118-1.206,7.548q-.193.907-.384,1.8-.216.885-.429,1.759c-.157.576-.321,1.144-.479,1.71-.177.556-.361,1.1-.538,1.651l-.018.056a1.249,1.249,0,0,0,.8,1.572c.035.012.072.021.106.03,2.882.658,5.639,1.374,8.265,2.085,1.314.353,2.592.715,3.838,1.062l3.63,1.035c2.349.673,4.557,1.309,6.606,1.886,1.026.288,2.01.564,2.955.82l1.384.376,1.322.348c3.437.9,6.177,1.523,8.065,1.876.471.093.891.161,1.254.217s.67.1.919.125c.5.054.763.049.778-.018s-.217-.195-.682-.377c-.233-.091-.523-.2-.869-.315l-1.2-.4c-1.817-.6-4.477-1.443-7.838-2.547l-1.293-.424-1.357-.45-2.9-.963c-2.018-.669-4.2-1.393-6.527-2.149-1.164-.38-2.37-.763-3.608-1.157s-2.517-.787-3.833-1.178c-2.628-.786-5.4-1.574-8.322-2.3l.891,1.658c.2-.581.411-1.167.609-1.758.178-.595.361-1.193.537-1.8q.237-.909.478-1.831l.426-1.863c.537-2.505.965-5.086,1.327-7.729.717-5.286,1.168-10.814,1.414-16.5Z" transform="translate(-402.069 -376.94)"/>
      <path id="Tracciato_847" data-name="Tracciato 847" d="M99.171,268.895a13.73,13.73,0,0,0-2.965-.789,9.335,9.335,0,0,0-1.562-.1,4.92,4.92,0,0,0-1.69.306.914.914,0,0,0-.3,1.52l.012.011a44.751,44.751,0,0,1,4.229,4.5,52.646,52.646,0,0,1,3.369,4.623c.5.76.962,1.519,1.407,2.256s.86,1.465,1.259,2.172l1.16,2.041a18.809,18.809,0,0,1,.926,1.872l.19.456c.061.151.114.3.171.45.117.295.206.59.3.874.047.143.086.285.128.424s.086.277.119.414c.069.274.146.537.2.8a21.944,21.944,0,0,1,.443,2.68,10.625,10.625,0,0,0,.253,2.336c.058.007.133-.195.222-.592.038-.2.079-.446.115-.742s.062-.638.071-1.025a16.492,16.492,0,0,0-.164-2.832c-.033-.277-.091-.559-.141-.853-.024-.148-.061-.294-.092-.445s-.064-.3-.1-.458c-.082-.306-.156-.626-.259-.946-.05-.161-.1-.325-.151-.489l-.172-.5a18.4,18.4,0,0,0-.88-2.053l-.13-.263-.13-.254-.264-.516-.546-1.069c-.372-.727-.771-1.48-1.192-2.252s-.877-1.56-1.368-2.357a49.457,49.457,0,0,0-3.373-4.859,43.6,43.6,0,0,0-4.345-4.747l-.284,1.53a2.586,2.586,0,0,1,.469-.118,4.48,4.48,0,0,1,.575-.045,7.588,7.588,0,0,1,1.25.088,12.157,12.157,0,0,1,2.563.69,14.681,14.681,0,0,1,3.078,1.629,14.409,14.409,0,0,1,1.34,1.057,13.087,13.087,0,0,1,1.185,1.187c.094.1.182.209.269.315s.176.209.264.323c.175.222.347.448.516.675.339.453.663.915.978,1.375.63.922,1.215,1.85,1.761,2.769a46.8,46.8,0,0,1,2.762,5.395,28.5,28.5,0,0,1,1.65,4.969,16.286,16.286,0,0,1,.348,2.232c.021.177.022.351.033.524l.007.129,0,.064v.052a.739.739,0,0,0,0,.08c0,.027-.008.052-.01.079l0,.04-.012.038c-.008.025-.012.052-.022.078a1.074,1.074,0,0,1-.071.154,1.508,1.508,0,0,1-.216.3,2.961,2.961,0,0,1-.632.492,5.441,5.441,0,0,1-.72.356,8.888,8.888,0,0,1-1.393.427,12.487,12.487,0,0,1-2.042.269c-.475.025-.734.028-.747.095s.227.182.718.281a7.758,7.758,0,0,0,2.183.074,8.42,8.42,0,0,0,1.576-.306,6,6,0,0,0,.884-.343,3.87,3.87,0,0,0,.9-.6,2.532,2.532,0,0,0,.407-.478,2.188,2.188,0,0,0,.165-.3c.024-.053.043-.11.063-.166l.03-.085.021-.088c.012-.059.029-.119.036-.18s.012-.122.017-.184l0-.046v-.1c0-.046,0-.093,0-.14,0-.188.01-.38,0-.571a16.377,16.377,0,0,0-.238-2.421,27.483,27.483,0,0,0-1.512-5.3,44.174,44.174,0,0,0-2.706-5.672c-.544-.963-1.13-1.934-1.77-2.9-.32-.484-.65-.97-1-1.452-.175-.241-.353-.482-.538-.723-.089-.12-.193-.243-.29-.364s-.2-.244-.3-.361a14.713,14.713,0,0,0-1.331-1.359,15.991,15.991,0,0,0-1.509-1.205,16.234,16.234,0,0,0-3.473-1.85Z" transform="translate(187.786 -248.593)"/>
      <path id="Tracciato_848" data-name="Tracciato 848" d="M2671.771,2.068a1.623,1.623,0,0,1,.133.237l.032.071.008.017c-.618.263.849-.355.679-.282l-.041.02c-.028.012-.055.024-.083.034a1.233,1.233,0,0,1-.344.074l-.044,0a.178.178,0,0,0-.051.005l-.129.025c-.03.005-.029.006-.027.006v.005a.034.034,0,0,0,0,.013.46.46,0,0,1,0,.058l0,.074,0,.088c0,.056,0,.119-.006.183,0,.123-.015.256-.025.385-.044.524-.11,1.054-.186,1.573-.153,1.039-.343,2.041-.563,2.978-.111.469-.228.922-.354,1.356s-.264.847-.409,1.236a9.262,9.262,0,0,1-.478,1.07,3.649,3.649,0,0,1-.552.8c-.048.041-.1.09-.14.13a.173.173,0,0,1-.035.028.6.6,0,0,1-.066.036,2.126,2.126,0,0,1-.392.13c-.292.072-.6.123-.886.168-.578.088-1.094.158-1.517.243a4.123,4.123,0,0,0-.975.289c-.22.105-.313.223-.285.279s.146.07.361.09l.947.068c.416.028.927.064,1.542.074a8.719,8.719,0,0,0,1.015-.039,3.258,3.258,0,0,0,.62-.121,1.886,1.886,0,0,0,.184-.068c.033-.015.063-.025.1-.046l.1-.059c.1-.07.2-.139.3-.213a4.626,4.626,0,0,0,.907-1.042,9.616,9.616,0,0,0,.672-1.212c.2-.426.377-.871.544-1.332s.317-.939.458-1.432a29.588,29.588,0,0,0,.705-3.126c.093-.55.173-1.111.23-1.7.012-.15.026-.3.033-.454,0-.077.009-.155.01-.24l0-.125c0-.043,0-.093,0-.138s0-.085-.008-.154l-.01-.093-.006-.046,0-.023c0-.007-.005-.028-.008-.042a1.739,1.739,0,0,0-.049-.181l-.015-.044-.008-.022a.069.069,0,0,0-.006-.014l-.013-.031-.056-.124A3.479,3.479,0,0,0,2673.3,1a2.574,2.574,0,0,0-.45-.5,2.155,2.155,0,0,0-.637-.374,2.357,2.357,0,0,0-.68-.143,3.106,3.106,0,0,0-.59.02,6.427,6.427,0,0,0-.95.2c-.284.081-.547.165-.8.243l-.189.059c-.053.014-.151.051-.229.079l-.246.092-.228.112a4.628,4.628,0,0,0-.812.528,6.946,6.946,0,0,0-1.194,1.262,10.879,10.879,0,0,0-.84,1.325,14.141,14.141,0,0,0-.621,1.306c-.044.109-.088.207-.131.332-.021.059-.042.118-.063.177s-.041.117-.055.173l-.095.337c-.025.109-.05.218-.074.326s-.043.213-.063.317-.04.208-.054.309c-.03.2-.062.4-.083.593-.094.769-.136,1.459-.159,2.063s-.023,1.123-.012,1.546c.025.848.089,1.318.217,1.336s.309-.435.505-1.259c.1-.412.206-.917.325-1.5s.252-1.242.422-1.952c.04-.179.09-.356.136-.54.023-.092.052-.181.077-.273s.052-.185.083-.274.059-.182.089-.274l.1-.266c.016-.046.035-.088.053-.128s.038-.083.057-.125c.033-.08.086-.178.132-.271a12.389,12.389,0,0,1,1.409-2.215,5.5,5.5,0,0,1,.935-.915l.128-.09.063-.046.065-.038a2.076,2.076,0,0,1,.26-.14l.131-.062.132-.043c.048-.015.075-.029.152-.049l.2-.056c.264-.075.521-.151.768-.217a4.856,4.856,0,0,1,.677-.14,1.3,1.3,0,0,1,.249-.007.5.5,0,0,1,.146.03.285.285,0,0,1,.093.057.749.749,0,0,1,.12.138Z" transform="translate(-2558.388 0.022)"/>
      <path id="Tracciato_849" data-name="Tracciato 849" d="M2858.6,1292.411c2.2.1,4.372.139,6.5.161l6.271.053c4.11.031,8.075.05,11.853.059,7.555.019,14.359,0,20.073-.062,11.43-.117,18.5-.384,18.506-.771s-7.059-.821-18.482-1.21c-5.711-.195-12.514-.378-20.066-.539-3.777-.081-7.741-.155-11.852-.222l-6.269-.1c-2.117-.032-4.255-.075-6.408-.172q-1.614-.072-3.2-.195c-1.055-.082-2.1-.18-3.13-.307s-2.049-.271-3.051-.447-1.986-.383-2.953-.617a34.908,34.908,0,0,1-5.522-1.824l-.325-.141c-.108-.046-.216-.094-.322-.145l-.636-.3c-.209-.1-.416-.212-.623-.316s-.41-.217-.611-.328c-.408-.217-.8-.458-1.188-.691l-.572-.369c-.094-.062-.191-.121-.283-.185l-.276-.2a28.111,28.111,0,0,1-4.018-3.409,33.19,33.19,0,0,1-3.222-3.848,41.417,41.417,0,0,1-2.536-3.989c-.745-1.327-1.4-2.641-1.968-3.922s-1.078-2.524-1.531-3.711-.845-2.325-1.207-3.391c-.714-2.136-1.282-4-1.753-5.525s-.843-2.711-1.129-3.507-.479-1.2-.573-1.182-.083.474.024,1.314.312,2.067.62,3.641.728,3.494,1.31,5.708c.3,1.106.626,2.286,1.025,3.528s.853,2.546,1.389,3.9,1.157,2.752,1.886,4.171a41.578,41.578,0,0,0,2.537,4.3,34.432,34.432,0,0,0,3.344,4.219,29.84,29.84,0,0,0,4.308,3.815l.3.219c.1.073.205.14.308.21.207.138.412.28.622.417.425.263.85.535,1.292.781.219.126.439.254.665.37s.449.24.677.356l.69.338c.115.057.231.111.349.164l.352.159a36.651,36.651,0,0,0,5.933,2.037q1.544.389,3.129.679c1.056.194,2.123.352,3.2.488s2.161.243,3.251.33,2.188.155,3.289.2Z" transform="translate(-2817.568 -1160.463)"/>
      <path id="Tracciato_850" data-name="Tracciato 850" d="M285.331,1684.995l4.725-.081,2.34-.041,1.164-.021,1.159-.032,4.6-.131,2.27-.066,1.128-.033,1.123-.045,4.442-.183,2.189-.092c.726-.03,1.448-.058,2.167-.1l8.43-.474,8.013-.576.97-.071.962-.085,1.9-.169,3.714-.334c2.437-.212,4.78-.454,7.036-.688s4.421-.475,6.487-.724,4.032-.508,5.889-.776,3.605-.551,5.236-.835,3.144-.583,4.533-.87c.705-.154,1.385-.317,2.017-.519.319-.092.623-.206.921-.308.148-.052.293-.113.436-.167s.285-.108.421-.17a16.854,16.854,0,0,0,2.79-1.5,15.069,15.069,0,0,0,1.813-1.428c.225-.215.424-.4.582-.58s.293-.319.39-.447c.2-.252.28-.4.246-.431s-.184.042-.441.222l-.475.335c-.185.138-.406.286-.653.459a21.286,21.286,0,0,1-1.891,1.156,18.358,18.358,0,0,1-2.749,1.195c-.132.049-.27.088-.408.132s-.277.09-.42.13c-.287.077-.579.165-.884.233-.607.153-1.251.267-1.932.376-1.391.207-2.9.427-4.531.635s-3.371.418-5.223.615-3.812.389-5.873.573-4.223.364-6.477.542-4.605.365-7.033.526l-3.7.26-1.9.135-.96.068-.967.055-7.988.456c-10.938.552-22.977.912-35.623,1.077s-24.7.144-35.67.116-20.851-.063-29.153-.028-15.021.136-19.664.287-7.21.332-7.21.526,2.567.385,7.205.565,11.351.387,19.647.6,18.175.454,29.152.629,23.051.272,35.73.1Z" transform="translate(-81.132 -1551.845)"/>
      <path id="Tracciato_851" data-name="Tracciato 851" d="M3848.337,1347.095a16.14,16.14,0,0,1-1.969-.1,17.041,17.041,0,0,1-3.774-.906c-.3-.106-.6-.228-.894-.347s-.585-.251-.87-.392a23.53,23.53,0,0,1-6.01-4.193,26.462,26.462,0,0,1-2.333-2.534c-.087-.109-.177-.215-.261-.328l-.251-.333c-.166-.222-.334-.44-.5-.66l-.465-.668-.23-.329-.217-.335a46.111,46.111,0,0,1-2.89-5.171c-.791-1.64-1.435-3.166-1.989-4.512s-1.013-2.519-1.394-3.476c-.763-1.914-1.229-2.961-1.354-2.92s.112,1.161.665,3.153c.276,1,.642,2.208,1.1,3.606s1.033,2.979,1.766,4.7a42.644,42.644,0,0,0,2.783,5.453l.215.357c.076.117.153.235.23.352l.467.713c.163.235.333.469.5.708l.255.357c.085.12.178.235.268.354a26.956,26.956,0,0,0,2.425,2.754,24.546,24.546,0,0,0,6.412,4.606c.309.156.628.294.947.437s.647.269.98.389a18.542,18.542,0,0,0,4.188,1.024,17.694,17.694,0,0,0,2.213.117c.208-.006.416-.007.622-.019l.616-.042a.927.927,0,0,0,.468-1.685l-.022-.015a46.439,46.439,0,0,1-10.867-10.443,47.006,47.006,0,0,1-3.589-5.536c-.132-.223-.243-.453-.363-.677l-.351-.668c-.12-.219-.224-.443-.331-.663l-.316-.655c-.418-.862-.781-1.726-1.17-2.545-.194-.41-.39-.81-.6-1.2-.1-.193-.209-.382-.314-.568l-.165-.275q-.08-.137-.167-.269a12.116,12.116,0,0,0-.708-1l-.189-.23-.093-.113-.1-.109-.193-.214c-.067-.07-.134-.139-.2-.206a7.086,7.086,0,0,0-3.335-1.869,5.079,5.079,0,0,0-1.4-.125,3.86,3.86,0,0,0-1.006.183c-.524.175-.746.371-.723.421.027.065.3-.011.8-.059a5.029,5.029,0,0,1,2.134.269,6.292,6.292,0,0,1,1.394.689,7.048,7.048,0,0,1,1.392,1.2q.081.092.162.189l.16.2c.026.034.053.068.081.1s.051.071.077.106l.156.216c.2.3.4.609.587.948.049.083.1.168.14.256s.092.174.138.262c.088.18.18.359.266.547.176.372.345.763.513,1.17.34.81.666,1.69,1.063,2.6q.148.341.3.688c.1.232.2.467.317.7l.339.7c.116.236.225.478.353.713a44.931,44.931,0,0,0,3.565,5.828,45.672,45.672,0,0,0,11.184,10.972l.446-1.7-.546.037c-.183.01-.367.011-.551.017Z" transform="translate(-3819 -1224.25)"/>
      <path id="Tracciato_852" data-name="Tracciato 852" d="M985.132,1508.386q-.662,1.8-1.314,3.583l-.329.9a2.393,2.393,0,0,0-.13.782,2.323,2.323,0,0,0,.148.781,2.294,2.294,0,0,0,1.008,1.179,2.222,2.222,0,0,0,.746.264,2.355,2.355,0,0,0,.39.033h.126l.117,0q3.735-.053,7.355-.084c4.823-.041,9.478-.059,13.913-.075,8.869-.03,16.861-.059,23.573-.146,3.356-.044,6.392-.1,9.058-.167l1.933-.053a12.252,12.252,0,0,0,1.842-.207,15.025,15.025,0,0,0,3.059-.947,21.49,21.49,0,0,0,2.26-1.133c.632-.362,1.152-.687,1.57-.945s.738-.448.958-.555c.11-.054.194-.09.252-.114s.09-.041.089-.057-.033-.029-.1-.038a1.073,1.073,0,0,0-.3.03,5.805,5.805,0,0,0-1.072.4c-.453.207-1,.479-1.649.784s-1.4.641-2.269.949a15.116,15.116,0,0,1-2.94.746,11.652,11.652,0,0,1-1.711.116l-1.925-.022-9.052-.109c-6.708-.081-14.7-.189-23.569-.254-4.437-.031-9.1-.049-13.927-.033q-3.623.011-7.369.056h-.225a.529.529,0,0,1-.075-.008.356.356,0,0,1-.133-.047.436.436,0,0,1-.187-.222.448.448,0,0,1-.027-.14.508.508,0,0,1,.025-.145q.161-.438.322-.877l1.317-3.582L989,1503.26v0a.914.914,0,0,0,.041-.144,1.889,1.889,0,0,1,1.622-1.522l1.724-.188.86-.094c.286-.031.573-.051.859-.077l1.708-.146.425-.037.425-.028.847-.057,1.684-.112,1.672-.083c4.437-.217,8.716-.285,12.781-.26s7.919.15,11.507.374c1.795.109,3.52.256,5.17.432l.309.031.3.039.605.079.6.078.3.038.148.02.146.025,1.151.2.284.048c.095.015.183.038.275.056.181.036.362.08.542.125.719.178,1.42.393,2.1.619s1.335.466,1.967.715c1.265.5,2.441,1.015,3.522,1.535a40.6,40.6,0,0,1,5.331,3.032,17.8,17.8,0,0,1,2.951,2.459c.6.643.839,1.044.9,1.01.046-.02-.1-.489-.625-1.236a14.341,14.341,0,0,0-2.818-2.791,36.168,36.168,0,0,0-5.29-3.365c-1.081-.574-2.261-1.146-3.541-1.7q-.959-.415-2-.8c-.695-.255-1.416-.5-2.176-.71-.191-.052-.382-.1-.579-.15-.1-.022-.2-.05-.294-.068l-.293-.058-1.188-.233-.151-.03-.151-.023-.3-.047-.611-.094-.618-.095-.311-.047-.313-.038c-1.674-.216-3.419-.4-5.23-.546-3.62-.295-7.5-.478-11.594-.557s-8.4-.05-12.885.138l-1.688.073-1.7.1-.857.052-.43.027-.431.035-1.732.141c-.29.025-.58.044-.871.074l-.874.091-1.763.185a3.745,3.745,0,0,0-3.221,3.011l.041-.146q-1.047,2.846-2.121,5.767Z" transform="translate(-814.655 -1390.249)"/>
      <path id="Tracciato_853" data-name="Tracciato 853" d="M98.521,1357.666a12.179,12.179,0,0,1-2.563.69,7.61,7.61,0,0,1-1.25.089,4.6,4.6,0,0,1-.575-.045,2.574,2.574,0,0,1-.469-.118l.284,1.53a43.609,43.609,0,0,0,4.345-4.747,49.438,49.438,0,0,0,3.373-4.859c.491-.8.94-1.588,1.368-2.357s.821-1.524,1.192-2.251l.546-1.069c.089-.174.177-.346.264-.516l.13-.254c.043-.088.087-.175.13-.263a18.48,18.48,0,0,0,.88-2.053l.172-.5c.054-.164.1-.328.151-.489.1-.32.177-.639.259-.946.039-.153.069-.308.1-.458s.069-.3.092-.445c.051-.294.108-.576.141-.853a16.483,16.483,0,0,0,.164-2.833c-.009-.387-.042-.73-.071-1.025s-.077-.543-.115-.741c-.09-.4-.164-.6-.222-.592a10.622,10.622,0,0,0-.253,2.336,21.95,21.95,0,0,1-.443,2.68c-.054.259-.13.523-.2.8-.033.138-.08.274-.119.414s-.081.282-.128.424c-.1.284-.188.579-.3.874-.056.148-.11.3-.171.45l-.19.456a18.828,18.828,0,0,1-.926,1.872l-1.16,2.041q-.6,1.06-1.259,2.172c-.445.737-.908,1.5-1.407,2.256a52.759,52.759,0,0,1-3.369,4.623,44.921,44.921,0,0,1-4.229,4.5l-.009.008a.913.913,0,0,0-.05,1.291.924.924,0,0,0,.342.232,4.925,4.925,0,0,0,1.69.306,9.42,9.42,0,0,0,1.562-.1,13.752,13.752,0,0,0,2.965-.789,16.221,16.221,0,0,0,3.473-1.85,15.882,15.882,0,0,0,1.509-1.2A14.737,14.737,0,0,0,105.5,1355c.105-.117.2-.239.3-.361s.2-.244.29-.364q.277-.36.538-.723c.351-.482.681-.968,1-1.452.639-.968,1.226-1.938,1.77-2.9a43.969,43.969,0,0,0,2.706-5.672,27.481,27.481,0,0,0,1.512-5.3,16.379,16.379,0,0,0,.238-2.421c.01-.192,0-.384,0-.571,0-.047,0-.093,0-.14v-.1l0-.046q-.008-.092-.017-.184c-.007-.061-.024-.12-.036-.18l-.021-.088-.03-.085c-.021-.056-.039-.113-.063-.166a2.24,2.24,0,0,0-.165-.3,2.536,2.536,0,0,0-.407-.478,3.828,3.828,0,0,0-.9-.6,6.083,6.083,0,0,0-.884-.343,8.425,8.425,0,0,0-1.576-.306,7.762,7.762,0,0,0-2.183.074c-.491.1-.731.221-.718.281s.271.07.747.095a12.454,12.454,0,0,1,2.042.269,8.9,8.9,0,0,1,1.393.427,5.45,5.45,0,0,1,.72.356,2.972,2.972,0,0,1,.632.492,1.462,1.462,0,0,1,.216.3,1.166,1.166,0,0,1,.071.154c.009.026.014.052.022.078l.012.038,0,.04c0,.026.01.052.01.079s0,.053,0,.08v.052l0,.064-.007.128c-.011.172-.012.346-.033.523a16.377,16.377,0,0,1-.348,2.232,28.461,28.461,0,0,1-1.65,4.969,46.781,46.781,0,0,1-2.762,5.395c-.546.919-1.13,1.847-1.761,2.769-.315.461-.639.922-.978,1.375-.169.227-.341.453-.516.675-.087.115-.175.215-.264.323s-.175.214-.269.315a13.12,13.12,0,0,1-1.185,1.187,14.36,14.36,0,0,1-1.341,1.057,14.7,14.7,0,0,1-3.078,1.629Z" transform="translate(187.766 -1235.689)"/>
      <path id="Tracciato_854" data-name="Tracciato 854" d="M2673.273,1812.759a3.489,3.489,0,0,0,.29-.508l.056-.124.014-.031.006-.014.008-.022.015-.044a1.679,1.679,0,0,0,.048-.181c0-.014.007-.034.008-.042l0-.023.006-.046.01-.093c.007-.069.006-.1.008-.154s0-.095,0-.138l0-.125c0-.085,0-.162-.009-.24-.008-.158-.021-.3-.033-.454-.056-.589-.136-1.15-.229-1.7a29.7,29.7,0,0,0-.705-3.126c-.142-.493-.293-.971-.458-1.433s-.348-.906-.545-1.332a9.556,9.556,0,0,0-.672-1.212,4.661,4.661,0,0,0-.908-1.042c-.1-.074-.194-.143-.3-.213-.035-.021-.07-.04-.1-.059s-.065-.03-.1-.045a1.594,1.594,0,0,0-.184-.068,3.2,3.2,0,0,0-.62-.121,8.719,8.719,0,0,0-1.015-.039c-.613.009-1.125.046-1.542.074l-.946.068c-.215.02-.332.03-.361.09s.065.174.285.279a4.163,4.163,0,0,0,.976.289c.423.085.939.154,1.517.242.288.045.593.1.885.168a2.215,2.215,0,0,1,.393.13.5.5,0,0,1,.065.036.16.16,0,0,1,.036.028c.041.04.092.088.14.13a3.644,3.644,0,0,1,.552.8,9.241,9.241,0,0,1,.478,1.07c.146.389.281.8.409,1.236s.243.887.354,1.356c.219.938.41,1.939.564,2.978.075.519.141,1.049.186,1.573.009.129.02.261.024.385,0,.063.006.126.006.182v.088l0,.074a.28.28,0,0,1,0,.058.12.12,0,0,0,0,.013v.01l0-.016a.357.357,0,0,1,.022-.077l.008-.018,0-.009s0,0,0,0l-.008.017-.032.071a1.732,1.732,0,0,1-.133.237.745.745,0,0,1-.119.137.321.321,0,0,1-.093.057.5.5,0,0,1-.146.03,1.309,1.309,0,0,1-.249-.007,4.932,4.932,0,0,1-.677-.14c-.247-.066-.5-.141-.768-.217l-.2-.057c-.077-.02-.1-.034-.152-.049l-.132-.043-.131-.062a2.058,2.058,0,0,1-.261-.141l-.065-.037-.064-.046-.127-.09a5.459,5.459,0,0,1-.935-.916,12.417,12.417,0,0,1-1.409-2.215c-.045-.093-.1-.191-.132-.271l-.056-.125a1.255,1.255,0,0,1-.054-.128c-.034-.089-.067-.178-.1-.266l-.089-.274c-.031-.089-.056-.183-.083-.274s-.053-.181-.077-.273c-.046-.184-.1-.361-.136-.54-.169-.71-.3-1.371-.422-1.952s-.226-1.086-.325-1.5c-.2-.825-.378-1.277-.505-1.26s-.192.488-.217,1.336c-.012.424-.011.942.011,1.546s.065,1.293.16,2.063c.021.192.054.39.083.593.015.1.036.205.054.309s.037.209.063.317.049.216.074.326.063.224.1.338c.014.056.035.114.055.173s.042.117.063.177c.043.125.086.222.131.332a14.127,14.127,0,0,0,.621,1.305,10.879,10.879,0,0,0,.84,1.325,6.869,6.869,0,0,0,1.194,1.261,4.609,4.609,0,0,0,.812.528l.228.112.246.092c.079.028.177.064.229.079l.189.059c.254.079.519.163.8.243a6.408,6.408,0,0,0,.949.205,3.158,3.158,0,0,0,.59.02,2.357,2.357,0,0,0,.68-.143,2.183,2.183,0,0,0,.637-.375,2.559,2.559,0,0,0,.45-.5Z" transform="translate(-2558.354 -1669.76)"/>
      <path id="Tracciato_855" data-name="Tracciato 855" d="M4133.8,716.28c-.03,4.058-.047,7.923-.049,11.439,0,1.758,0,3.428,0,4.992q.005,1.172.01,2.262c0,.179,0,.356,0,.531a4.43,4.43,0,0,1-.03.49,1.957,1.957,0,0,1-.25.82.733.733,0,0,1-.562.352,2.282,2.282,0,0,1-.795-.1,4.059,4.059,0,0,1-.755-.3,2.825,2.825,0,0,1-.616-.416c-.021-.02-.04-.036-.062-.059l-.065-.07-.128-.138-.246-.274c-.157-.183-.307-.362-.446-.537-.279-.349-.526-.679-.748-.976-.441-.6-.788-1.062-1.045-1.362s-.413-.44-.436-.421.081.2.284.532.5.826.9,1.458c.2.316.426.664.692,1.038q.2.28.428.576l.24.3.127.15.064.076c.023.025.051.054.077.081a3.3,3.3,0,0,0,.714.534,4.6,4.6,0,0,0,.85.379,3.4,3.4,0,0,0,.483.122,2.291,2.291,0,0,0,.541.035,1.416,1.416,0,0,0,.591-.177,1.393,1.393,0,0,0,.462-.43,2.578,2.578,0,0,0,.388-1.1,5.446,5.446,0,0,0,.051-.561c.006-.19.009-.363.013-.546q.021-1.089.044-2.262c.025-1.564.052-3.234.081-4.991.05-3.515.092-7.381.123-11.438s.047-7.923.049-11.439c0-1.758,0-3.428,0-4.992q0-.587,0-1.152c0-.377-.005-.76-.042-1.143a4.1,4.1,0,0,0-.259-1.133,2.652,2.652,0,0,0-.274-.519,2.283,2.283,0,0,0-.387-.443,2.036,2.036,0,0,0-1.03-.482,2.738,2.738,0,0,0-1.033.045,4.535,4.535,0,0,0-1.621.765c-.113.081-.219.166-.322.252s-.2.169-.288.255-.183.169-.267.256-.169.169-.248.255a8.121,8.121,0,0,0-.792.988,6.9,6.9,0,0,0-.792,1.55,3.58,3.58,0,0,0-.125.434c-.021.1-.024.154-.009.159s.048-.038.1-.125.119-.22.208-.392a9.391,9.391,0,0,1,.914-1.411,8.566,8.566,0,0,1,.816-.89c.08-.076.163-.154.249-.229s.176-.152.268-.23.189-.152.286-.229.2-.146.3-.214a4.065,4.065,0,0,1,1.445-.613,2.133,2.133,0,0,1,.8-.009,1.388,1.388,0,0,1,.7.353,1.872,1.872,0,0,1,.458.722,3.518,3.518,0,0,1,.186.946c.024.34.019.7.011,1.075s-.015.761-.021,1.152c-.026,1.564-.052,3.234-.081,4.991-.05,3.515-.093,7.381-.123,11.438Z" transform="translate(-4125.366 -644.624)"/>
      <path id="Tracciato_856" data-name="Tracciato 856" d="M4236.375,789.3c-.006,2.16.058,4.216.158,6.085.058.934.111,1.821.187,2.649.036.414.068.815.107,1.2s.08.752.117,1.1c.073.7.162,1.337.238,1.894.039.278.075.536.113.775s.077.454.112.649c.142.779.25,1.205.314,1.2a3.251,3.251,0,0,0,.046-1.237c-.018-.4-.04-.881-.066-1.435s-.069-1.194-.1-1.9q-.028-.528-.058-1.1c-.021-.383-.033-.783-.052-1.2-.042-.826-.066-1.708-.1-2.637-.054-1.858-.09-3.9-.086-6.044s.063-4.186.128-6.044c.041-.928.072-1.811.12-2.636.022-.413.039-.812.061-1.195s.044-.751.065-1.1c.035-.7.084-1.338.114-1.9s.055-1.035.077-1.435a3.25,3.25,0,0,0-.038-1.237c-.063-.008-.176.418-.322,1.2-.038.195-.077.411-.118.648s-.077.5-.118.774c-.081.556-.175,1.189-.252,1.892q-.06.528-.126,1.1c-.043.384-.077.784-.115,1.2-.082.828-.142,1.715-.206,2.648-.115,1.867-.192,3.924-.2,6.083Z" transform="translate(-4236.374 -717.72)"/>
      <path id="Tracciato_857" data-name="Tracciato 857" d="M4211.428,766.173c0,2.433.062,4.751.169,6.856.062,1.052.119,2.053.2,2.986.038.467.071.918.113,1.351s.085.848.125,1.245c.076.793.171,1.508.252,2.136.042.314.08.605.12.874s.081.513.118.733a4.017,4.017,0,0,0,.326,1.354,4.072,4.072,0,0,0,.035-1.392c-.021-.449-.048-.991-.079-1.617s-.08-1.346-.115-2.139q-.03-.594-.064-1.243c-.022-.432-.038-.883-.059-1.349-.047-.931-.075-1.927-.112-2.974-.059-2.1-.1-4.4-.095-6.817s.068-4.722.142-6.816c.045-1.047.08-2.043.133-2.974.025-.466.043-.915.069-1.348s.05-.846.073-1.243c.04-.792.094-1.509.129-2.139s.065-1.168.09-1.617a.7.7,0,1,0-.361-.04c-.039.219-.079.464-.124.731s-.082.56-.125.873c-.084.627-.185,1.341-.267,2.134-.042.4-.088.812-.134,1.244s-.082.883-.123,1.351c-.087.934-.151,1.933-.22,2.985C4211.523,761.423,4211.439,763.74,4211.428,766.173Z" transform="translate(-4209.701 -694.429)"/>
      <path id="Tracciato_858" data-name="Tracciato 858" d="M4187.068,743.34c-.005,2.661.061,5.2.168,7.5.061,1.151.119,2.244.2,3.266.039.511.071,1,.113,1.479s.086.928.125,1.362c.077.867.171,1.65.253,2.338.041.344.08.663.119.957s.083.56.119.8a.766.766,0,1,0,.362-.035c-.021-.49-.049-1.084-.079-1.77s-.08-1.474-.114-2.341q-.031-.651-.065-1.361c-.022-.473-.037-.966-.059-1.476-.047-1.02-.074-2.109-.112-3.256-.059-2.294-.1-4.815-.095-7.462s.068-5.169.142-7.462c.046-1.146.08-2.236.133-3.255.025-.51.043-1,.069-1.475s.051-.927.074-1.361c.039-.868.094-1.651.129-2.341s.065-1.279.091-1.769a4.869,4.869,0,0,0-.026-1.521,4.79,4.79,0,0,0-.336,1.484c-.038.243-.078.51-.124.8s-.082.613-.125.957c-.084.687-.185,1.469-.267,2.336-.043.434-.088.889-.134,1.362s-.082.967-.123,1.478c-.087,1.021-.15,2.115-.219,3.265-.122,2.3-.2,4.836-.216,7.5Z" transform="translate(-4183.577 -671.713)"/>
      <path id="Tracciato_859" data-name="Tracciato 859" d="M4159.358,733.4c0,2.806.062,5.478.169,7.906.062,1.214.119,2.367.2,3.445.039.539.071,1.06.113,1.56s.086.979.125,1.437c.077.915.171,1.742.253,2.467.041.363.08.7.119,1.01s.083.592.119.847a.807.807,0,1,0,.363-.033c-.022-.517-.049-1.143-.08-1.867s-.08-1.555-.114-2.47q-.031-.687-.065-1.436c-.022-.5-.037-1.019-.059-1.557-.047-1.076-.075-2.225-.113-3.435-.059-2.42-.1-5.08-.094-7.872s.068-5.453.142-7.872c.045-1.209.08-2.359.133-3.434.025-.537.043-1.057.068-1.556s.051-.978.073-1.435c.041-.915.094-1.742.129-2.47s.065-1.35.09-1.866a5.385,5.385,0,0,0-.026-1.6,5.3,5.3,0,0,0-.335,1.568q-.058.383-.125.847c-.042.31-.082.648-.125,1.01-.084.725-.184,1.551-.267,2.465q-.064.687-.134,1.436c-.045.5-.082,1.021-.123,1.559-.087,1.078-.15,2.23-.219,3.444-.122,2.427-.2,5.1-.216,7.905Z" transform="translate(-4153.86 -661.519)"/>
      <path id="Tracciato_860" data-name="Tracciato 860" d="M3119.663,301.224c2.472-.955,4.912-1.816,7.287-2.591l1.769-.565,1.745-.523c.574-.178,1.148-.332,1.714-.492s1.124-.322,1.681-.463l1.645-.432c.543-.138,1.08-.264,1.609-.4l.787-.193c.261-.062.521-.118.779-.177l1.52-.345c.5-.109.992-.207,1.475-.309s.956-.206,1.423-.29l1.37-.263c.224-.042.445-.088.664-.127l.65-.114c.858-.149,1.672-.3,2.448-.418s1.5-.251,2.189-.344l1.91-.284c.588-.08,1.125-.155,1.609-.227l.684-.1.6-.085c.373-.055.688-.107.942-.156.51-.1.775-.178.771-.243s-.277-.109-.8-.133c-.259-.012-.58-.019-.958-.022h-.611c-.218,0-.45.011-.7.019-.491.016-1.037.038-1.635.065s-1.245.083-1.941.133-1.439.127-2.228.2-1.619.182-2.492.29l-.663.083c-.223.029-.448.065-.676.1l-1.4.208c-.476.067-.958.156-1.45.239s-.993.169-1.5.262l-1.549.3c-.262.052-.527.1-.793.157l-.8.174c-.539.118-1.086.233-1.64.36l-1.676.4c-.568.131-1.136.287-1.713.437s-1.162.3-1.747.471l-1.777.506-1.8.553c-2.418.762-4.9,1.624-7.407,2.593s-4.917,2.017-7.216,3.087l-1.7.808-1.654.826c-.548.268-1.078.555-1.606.831s-1.051.547-1.558.834l-1.508.836c-.494.28-.976.565-1.453.841l-.709.414c-.234.138-.463.281-.691.42l-1.347.824c-.438.274-.865.553-1.286.821s-.835.53-1.231.8l-1.17.789c-.191.13-.38.255-.564.385l-.545.385c-.717.509-1.4.989-2.034,1.468s-1.236.915-1.782,1.353-1.059.834-1.521,1.212-.877.736-1.25,1.055c-.186.16-.363.31-.525.456l-.45.413c-.278.258-.509.479-.692.664-.366.369-.538.585-.5.635s.292-.07.733-.342c.22-.136.488-.311.8-.521l.5-.343.574-.386q.608-.411,1.34-.918l1.6-1.079c.569-.394,1.194-.791,1.848-1.224s1.355-.876,2.088-1.344l.556-.356c.188-.119.382-.235.575-.355l1.188-.731c.4-.253.823-.493,1.246-.746s.855-.51,1.3-.767l1.355-.772c.229-.13.459-.264.694-.395l.711-.389c.478-.26.96-.529,1.453-.794l1.506-.792c.505-.272,1.028-.526,1.553-.793s1.053-.537,1.6-.794l1.64-.792,1.687-.777c2.275-1.032,4.657-2.043,7.125-3.007Z" transform="translate(-3072.104 -270.786)"/>
      <path id="Tracciato_861" data-name="Tracciato 861" d="M386.979,272.914c-1.608-.183-3.182-.311-4.7-.4-.76-.05-1.509-.079-2.24-.112s-1.449-.049-2.149-.056c-2.8-.05-5.315.021-7.424.135s-3.811.274-4.983.429-1.816.3-1.809.417.662.188,1.839.231,2.878.065,4.975.1,4.591.088,7.353.221c.691.029,1.4.074,2.12.112s1.459.091,2.207.151c1.5.112,3.047.251,4.628.43s3.121.381,4.6.611,2.9.487,4.255.756l1,.209.489.1.48.109.94.214.907.222c.148.037.3.071.442.109l.432.114.842.219.805.224c.262.075.521.141.771.217l.732.216c.238.07.471.137.694.209l.654.2c.211.065.418.127.614.193.394.13.763.248,1.1.355s.646.217.926.306l.4.124.348.112c.217.067.4.121.554.159.3.076.477.091.5.038s-.1-.169-.363-.345c-.131-.088-.3-.19-.493-.306-.1-.058-.206-.12-.32-.185l-.372-.2c-.264-.136-.558-.285-.882-.445s-.684-.316-1.068-.489c-.192-.088-.393-.172-.6-.259l-.644-.266c-.22-.093-.45-.181-.686-.271l-.726-.276c-.248-.1-.505-.181-.768-.274l-.8-.28-.844-.272-.435-.138c-.146-.046-.3-.088-.445-.133l-.914-.268c-.311-.088-.628-.171-.949-.258l-.486-.13-.495-.122c-.332-.081-.668-.166-1.01-.246-1.368-.316-2.814-.608-4.319-.867s-3.072-.474-4.68-.655Z" transform="translate(-127.299 -252.602)"/>
      <path id="Tracciato_862" data-name="Tracciato 862" d="M386.763,1626.772c-1.581.18-3.13.318-4.628.43-.749.061-1.486.1-2.207.151s-1.429.083-2.12.111c-2.762.133-5.256.185-7.353.221s-3.8.057-4.975.1-1.833.115-1.84.231.637.26,1.809.417,2.874.313,4.983.429,4.626.185,7.424.135c.7-.008,1.416-.035,2.149-.057s1.48-.062,2.24-.112c1.522-.092,3.1-.22,4.7-.4s3.174-.4,4.68-.655,2.95-.55,4.319-.867c.342-.08.678-.165,1.01-.246l.495-.122.486-.131c.321-.087.638-.17.949-.258l.914-.268c.15-.045.3-.087.445-.133l.435-.138.844-.271.8-.28c.262-.093.52-.178.768-.274l.726-.276c.236-.089.466-.177.686-.271l.644-.267c.208-.087.409-.169.6-.258q.577-.26,1.068-.489c.324-.16.618-.309.882-.445l.372-.2c.115-.065.222-.126.32-.185.2-.117.362-.219.493-.306.261-.175.387-.292.363-.345s-.2-.037-.5.038c-.152.038-.338.091-.554.159l-.348.112-.4.124q-.419.134-.926.306t-1.1.355c-.2.067-.4.128-.614.194l-.654.2c-.224.073-.456.14-.694.209l-.732.217c-.249.076-.508.142-.771.217l-.805.225-.842.219-.432.114c-.146.038-.294.072-.443.109l-.907.222-.94.214-.48.109-.489.1-1,.209c-1.351.269-2.774.523-4.255.756s-3.021.432-4.6.611Z" transform="translate(-127.269 -1504.268)"/>
    </g>
  </g>
</svg>
