<svg xmlns="http://www.w3.org/2000/svg" width="12.027" height="9.778" viewBox="0 0 12.027 9.778">
  <g id="car_icon" data-name="car icon" transform="translate(0.15 0.15)">
    <path id="Tracciato_868" data-name="Tracciato 868" d="M83.668,453.359a.841.841,0,0,1,.84.84v2.787H73.654V454.2a.841.841,0,0,1,.84-.84h9.174m0-.436H74.494a1.276,1.276,0,0,0-1.276,1.276v3.223H84.945V454.2a1.276,1.276,0,0,0-1.276-1.276Z" transform="translate(-73.218 -449.749)" fill="#222" stroke="#222" stroke-width="0.3"/>
    <path id="Tracciato_869" data-name="Tracciato 869" d="M135.209,822.5v.742a.622.622,0,0,1-.622.622h-.137a.622.622,0,0,1-.622-.622V822.5h1.38m.436-.436h-2.253v1.179a1.058,1.058,0,0,0,1.058,1.058h.137a1.058,1.058,0,0,0,1.058-1.058Z" transform="translate(-132.73 -814.827)" fill="#222" stroke="#222" stroke-width="0.3"/>
    <path id="Tracciato_870" data-name="Tracciato 870" d="M876,822.014v.748a.622.622,0,0,1-.622.622h-.137a.622.622,0,0,1-.622-.622v-.748H876m.437-.437h-2.253v1.184a1.058,1.058,0,0,0,1.058,1.058h.137a1.058,1.058,0,0,0,1.058-1.058v-1.184Z" transform="translate(-865.355 -814.343)" fill="#222" stroke="#222" stroke-width="0.3"/>
    <path id="Tracciato_871" data-name="Tracciato 871" d="M196.627,574.708a.442.442,0,0,1,.442.442v.046a.442.442,0,0,1-.442.442h-.046a.442.442,0,0,1-.442-.442v-.046a.442.442,0,0,1,.442-.442h.046m0-.436h-.046a.878.878,0,0,0-.878.878v.046a.878.878,0,0,0,.878.878h.046a.878.878,0,0,0,.878-.878v-.046A.878.878,0,0,0,196.627,574.272Z" transform="translate(-194.353 -569.762)" fill="#222" stroke="#222" stroke-width="0.3"/>
    <path id="Tracciato_872" data-name="Tracciato 872" d="M852.967,574.708a.442.442,0,0,1,.442.442v.046a.442.442,0,0,1-.442.442h-.046a.442.442,0,0,1-.442-.442v-.046a.442.442,0,0,1,.442-.442h.046m0-.436h-.046a.878.878,0,0,0-.878.878v.046a.878.878,0,0,0,.878.878h.046a.878.878,0,0,0,.878-.878v-.046A.878.878,0,0,0,852.967,574.272Z" transform="translate(-843.46 -569.762)" fill="#222" stroke="#222" stroke-width="0.3"/>
    <path id="Tracciato_873" data-name="Tracciato 873" d="M191.916,165.424a.791.791,0,0,1,.719.692l.389,2.023H184.8l.425-2.039a.78.78,0,0,1,.716-.676h5.972m0-.436h-5.972a1.215,1.215,0,0,0-1.144,1.023l-.535,2.564h9.286l-.488-2.542a1.218,1.218,0,0,0-1.148-1.046Z" transform="translate(-183.042 -164.987)" fill="#222" stroke="#222" stroke-width="0.3"/>
  </g>
</svg>
