<svg xmlns="http://www.w3.org/2000/svg" width="42.72" height="21.704" viewBox="0 0 42.72 21.704">
  <g id="noun-car-6879696" transform="translate(-5.009 -27.146)">
    <path id="Tracciato_943" data-name="Tracciato 943" d="M10.715,45.029l-2.422.015h0a3.9,3.9,0,0,1-2.118-1.018,3.031,3.031,0,0,1-1.061-1.8,19.419,19.419,0,0,1,.313-6.2,2.628,2.628,0,0,1,2.326-1.51l0,0a25.706,25.706,0,0,1,2.878-.095,1.132,1.132,0,0,0,.5-.056,3.554,3.554,0,0,0,.684-.731c.757-.931,2.227-3.629,3.093-4.724a3.972,3.972,0,0,1,1.343-1.261,5.854,5.854,0,0,1,2.313-.436c2.244-.122,6.1-.057,8.235,0,2.092.056,2.583.078,4.1,1.276,1.324,1.044,4.143,3.618,5.681,4.93a4.218,4.218,0,0,0,2.771,1.359,45.085,45.085,0,0,1,5.614,1.471,4.649,4.649,0,0,1,1.929,1.116,3.058,3.058,0,0,1,.751,1.756,10.7,10.7,0,0,1,0,2.711c-.017.132-.037.26-.057.382a4.027,4.027,0,0,1-3.042,2.6l-3.455.022a4.379,4.379,0,0,1-8.694.054l-12.984.08a4.38,4.38,0,0,1-8.694.054Zm35.939-5.265H45.81a.722.722,0,0,0,0,1.443h.838a9.37,9.37,0,0,0,.006-1.443Zm-.184,2.5h-.66a1.78,1.78,0,0,1,0-3.561h.66c-.243-.749-.872-1.113-1.855-1.46a43.089,43.089,0,0,0-5.47-1.428,5.15,5.15,0,0,1-3.253-1.595c-1.467-1.254-4.386-3.91-5.649-4.909h0a4.306,4.306,0,0,0-1.41-.861,8.733,8.733,0,0,0-2.059-.189c-1.938-.052-6.029-.115-8.157,0a5.034,5.034,0,0,0-1.894.325c-1.413.708-3.561,5.8-5.059,6.682h0a1.759,1.759,0,0,1-1.029.2,25.068,25.068,0,0,0-2.743.083,1.7,1.7,0,0,0-1.48.84A15.413,15.413,0,0,0,6.058,40l0,0a15.579,15.579,0,0,0,.1,2.079,2.9,2.9,0,0,0,2.127,1.9l2.422-.015h0a4.38,4.38,0,0,1,8.7-.054l12.982-.08a4.378,4.378,0,0,1,8.693-.05l3.461-.022a3.431,3.431,0,0,0,1.929-1.5ZM23.332,37.978h1.037a.53.53,0,0,0,0-1.059H23.332a.53.53,0,1,0,0,1.059Zm13.405,4.585v0a1.781,1.781,0,1,0,1.645,1.1,1.786,1.786,0,0,0-1.645-1.1Zm.51,1.27v0a.722.722,0,1,0,0,1.02.719.719,0,0,0,0-1.02Zm1.838-1.838v0a3.318,3.318,0,1,0,.974,2.348,3.32,3.32,0,0,0-.974-2.348Zm-24.025.7,0,0a1.778,1.778,0,1,0,1.645,1.1,1.78,1.78,0,0,0-1.645-1.1Zm.51,1.269,0,0a.722.722,0,1,0,0,1.02.72.72,0,0,0,0-1.02Zm1.838-1.838,0,0a3.322,3.322,0,1,0,.972,2.348,3.32,3.32,0,0,0-.972-2.348Zm2.417-11.191-1.981,0-1.871,3.108a2.718,2.718,0,0,0-.247.412.162.162,0,0,0,.156.137h3.941c.043,0,.072-.054.072-.1v-3.45c0-.05-.03-.1-.072-.1Zm-1.981-1.057a.789.789,0,0,0-.816.364L15.069,33.5c-.226.376-.516.658-.362,1.23a1.225,1.225,0,0,0,1.178.924h3.941a1.152,1.152,0,0,0,1.129-1.163v-3.45a1.151,1.151,0,0,0-1.129-1.161H17.845Zm6.02,0a1.153,1.153,0,0,0-1.131,1.163v3.45a1.151,1.151,0,0,0,1.131,1.161H32.4a1.264,1.264,0,0,0,.684-2.3l-4.26-3.257v0a1.115,1.115,0,0,0-.683-.219Zm4.279,1.057-4.279,0c-.043,0-.072.054-.072.1v3.45c0,.05.03.1.072.1H32.4c.15,0,.258-.237.043-.4l-4.256-3.253c-.006-.006-.022-.006-.043-.006Z" transform="translate(0 0)" fill="#fff" fill-rule="evenodd"/>
  </g>
</svg>
