<svg xmlns="http://www.w3.org/2000/svg" width="11.49" height="12.127" viewBox="0 0 11.49 12.127">
  <g id="casa_icon" data-name="casa icon" transform="translate(0.1 0.151)">
    <path id="Icon_core-home" data-name="Icon core-home" d="M13.28,6.572l-5-4.6a.857.857,0,0,0-1.186.025l-4.6,4.6-.236.236v6.786H6.685V9.383H9.1v4.234H13.54V6.812ZM7.694,2.548c.007,0,0,0,0,0s-.007,0,0,0Zm5.039,10.263H9.911V9.383A.806.806,0,0,0,9.1,8.577H6.685a.806.806,0,0,0-.806.806v3.427H3.056V7.166l4.638-4.6h0l5.039,4.6Z" transform="translate(-2.25 -1.742)" fill="#dc0814" stroke="#dc0814" stroke-linecap="round" stroke-linejoin="round" stroke-width="0.2"/>
  </g>
</svg>
