<svg xmlns="http://www.w3.org/2000/svg" width="14.195" height="14.195" viewBox="0 0 14.195 14.195">
  <g id="chat_icon" data-name="chat icon" transform="translate(0.6 0.6)">
    <path id="Icon_ion-chatbubble-outline" data-name="Icon ion-chatbubble-outline" d="M4.609,13.746a.708.708,0,0,0-.123-.464,1.4,1.4,0,0,0-.079-.119A6.242,6.242,0,0,1,3.375,9.727,6.411,6.411,0,0,1,9.867,3.375a6.47,6.47,0,0,1,6.365,5.056,6.216,6.216,0,0,1,.138,1.3,6.37,6.37,0,0,1-6.391,6.4,7.65,7.65,0,0,1-1.764-.261c-.421-.118-.841-.274-.949-.316a.971.971,0,0,0-.347-.065.959.959,0,0,0-.378.076l-2.119.765a.5.5,0,0,1-.146.038.3.3,0,0,1-.3-.3.5.5,0,0,1,.019-.1Z" transform="translate(-3.375 -3.375)" fill="none" stroke="#000" stroke-linecap="round" stroke-miterlimit="10" stroke-width="1.2"/>
  </g>
</svg>
