<svg id="cliente_icona" data-name="cliente icona" xmlns="http://www.w3.org/2000/svg" width="10.215" height="14.399" viewBox="0 0 10.215 14.399">
  <g id="_212-User" data-name="212-User">
    <path id="Tracciato_866" data-name="Tracciato 866" d="M3.9,11.69a4.5,4.5,0,0,1,7.584-3.27l.616-.652a5.4,5.4,0,0,0-1.8-1.125,3.6,3.6,0,1,0-3.805,0A5.4,5.4,0,0,0,3,11.69v2.249a.45.45,0,0,0,.45.45h4.5v-.9H3.9Zm1.8-8.1a2.7,2.7,0,1,1,2.7,2.7,2.7,2.7,0,0,1-2.7-2.7Z" transform="translate(-3 0.01)" fill="#222"/>
    <path id="Tracciato_867" data-name="Tracciato 867" d="M18.717,24.073l-1.592-1.592a2.249,2.249,0,1,0-.634.634l1.592,1.592Zm-3.468-1.48A1.349,1.349,0,1,1,16.6,21.244,1.349,1.349,0,0,1,15.249,22.593Z" transform="translate(-8.502 -10.444)" fill="#222"/>
  </g>
</svg>
