<svg xmlns="http://www.w3.org/2000/svg" width="34.311" height="25.671" viewBox="0 0 34.311 25.671">
  <g id="noun-client-6651903" transform="translate(-1.566 -13.855)">
    <path id="Tracciato_779" data-name="Tracciato 779" d="M18.721,14.055a4.646,4.646,0,0,0-3.081,8.129l-.868.31a5.217,5.217,0,0,0-1.964,1.255,4.61,4.61,0,0,0-.766-.357l-.7-.25a4.221,4.221,0,1,0-5.712,0l-.7.25A4.777,4.777,0,0,0,1.766,27.88v3.757a.479.479,0,0,0,.481.481H13.478a5.264,5.264,0,0,0,10.485,0H35.2a.479.479,0,0,0,.481-.481V27.88a4.777,4.777,0,0,0-3.164-4.488l-.7-.25a4.221,4.221,0,1,0-5.712,0l-.7.25a4.611,4.611,0,0,0-.766.357,5.273,5.273,0,0,0-1.964-1.255l-.868-.31a4.646,4.646,0,0,0-3.081-8.129Zm0,.964a3.691,3.691,0,1,1-3.691,3.691A3.7,3.7,0,0,1,18.718,15.019ZM8.48,16.785a3.26,3.26,0,1,1-3.26,3.26A3.265,3.265,0,0,1,8.48,16.785Zm20.473,0a3.26,3.26,0,1,1-3.26,3.26A3.265,3.265,0,0,1,28.954,16.785ZM16.62,22.857a4.62,4.62,0,0,0,4.2,0l1.527.544A4.309,4.309,0,0,1,25.2,27.449v3.71H23.966a5.264,5.264,0,0,0-10.485,0H12.245v-3.71H12.24A4.306,4.306,0,0,1,15.093,23.4Zm-10.027.961a4.177,4.177,0,0,0,3.773,0l1.348.481a3.928,3.928,0,0,1,.47.206,5.244,5.244,0,0,0-.906,2.944v3.71H2.721V27.88A3.808,3.808,0,0,1,5.245,24.3Zm20.476,0a4.177,4.177,0,0,0,3.773,0l1.348.481a3.811,3.811,0,0,1,2.524,3.581v3.279H26.158v-3.71a5.266,5.266,0,0,0-.906-2.944,3.932,3.932,0,0,1,.47-.206Zm-8.351,3.515a4.306,4.306,0,1,1-4.306,4.306,4.31,4.31,0,0,1,4.306-4.306ZM20.9,30.027a.482.482,0,0,0-.341.14l-2.323,2.323-1.362-1.362a.48.48,0,0,0-.678.678l1.7,1.7a.484.484,0,0,0,.681,0l2.664-2.664a.481.481,0,0,0,0-.678.491.491,0,0,0-.343-.14Zm-7.279,6.229a.479.479,0,0,0-.339.818,7.691,7.691,0,0,0,10.873,0,.481.481,0,0,0-.678-.681,6.738,6.738,0,0,1-9.516,0,.477.477,0,0,0-.339-.14Z" transform="translate(0 0)" fill="#fff" stroke="#fff" stroke-width="0.4"/>
  </g>
</svg>
