<svg xmlns="http://www.w3.org/2000/svg" width="12.091" height="10.355" viewBox="0 0 12.091 10.355">
  <g id="commesse_icona" data-name="commesse icona" transform="translate(0.4 0.4)">
    <path id="Tracciato_777" data-name="Tracciato 777" d="M12.495,5.625H5.546a1.227,1.227,0,0,0-1.3,1.086l-.869,4.126v3.04a1.307,1.307,0,0,0,1.3,1.3h8.685a1.307,1.307,0,0,0,1.3-1.3v-3.04L13.8,6.711A1.223,1.223,0,0,0,12.495,5.625Z" transform="translate(-3.375 -5.625)" fill="none" stroke="#222" stroke-linejoin="round" stroke-width="0.8"/>
    <path id="Tracciato_778" data-name="Tracciato 778" d="M3.375,13.817H7.283m3.474,0h3.908m-7.383,0a1.794,1.794,0,0,0,1.737,1.846,1.794,1.794,0,0,0,1.737-1.846" transform="translate(-3.375 -8.677)" fill="none" stroke="#222" stroke-linecap="round" stroke-linejoin="round" stroke-width="0.8"/>
    <line id="Linea_14" data-name="Linea 14" x2="6.291" transform="translate(2.5 3.264)" fill="none" stroke="#222" stroke-width="0.8"/>
    <line id="Linea_15" data-name="Linea 15" x2="6.291" transform="translate(2.5 1.467)" fill="none" stroke="#222" stroke-width="0.8"/>
  </g>
</svg>
