<svg xmlns="http://www.w3.org/2000/svg" width="12.266" height="12.266" viewBox="0 0 12.266 12.266">
  <g id="filiali_icon" data-name="filiali icon" transform="translate(0.154 0.15)">
    <path id="Tracciato_876" data-name="Tracciato 876" d="M13.762,12.1V9.444a.719.719,0,0,0-.717-.717H9.218V5.841a1.435,1.435,0,1,0-.478,0V8.732H4.913A.719.719,0,0,0,4.2,9.45v2.657a1.435,1.435,0,1,0,.478,0V9.45a.239.239,0,0,1,.239-.239H8.74V12.1a1.435,1.435,0,1,0,.478,0V9.211h3.827a.239.239,0,0,1,.239.239v2.657a1.435,1.435,0,1,0,.478,0ZM5.391,13.516a.957.957,0,1,1-.957-.957A.957.957,0,0,1,5.391,13.516Zm4.544,0a.957.957,0,1,1-.957-.957.957.957,0,0,1,.957.957ZM8.979,5.384a.957.957,0,1,1,.957-.957A.957.957,0,0,1,8.979,5.384Zm4.544,9.088a.957.957,0,1,1,.957-.957A.957.957,0,0,1,13.523,14.472Z" transform="translate(-3 -2.991)" fill="#222" stroke="#222" stroke-width="0.3"/>
  </g>
</svg>
