<svg xmlns="http://www.w3.org/2000/svg" width="15" height="14.239" viewBox="0 0 15 14.239">
  <path id="Tracciato_884" data-name="Tracciato 884" d="M-18.826-588.817A2.176,2.176,0,0,1-21-590.99v-6.848a2.176,2.176,0,0,1,2.174-2.174h.869v-.869a2.177,2.177,0,0,1,2.175-2.175H-13.5a.648.648,0,0,1,.461.192l1.331,1.33h3.534A2.177,2.177,0,0,1-6-599.359v5.325a2.177,2.177,0,0,1-2.174,2.175h-.869v.869a2.177,2.177,0,0,1-2.175,2.174Zm-.869-9.022v6.848a.87.87,0,0,0,.869.869h7.608a.87.87,0,0,0,.869-.869v-.869h-5.434a2.177,2.177,0,0,1-2.175-2.175v-4.673h-.869A.87.87,0,0,0-19.7-597.838Zm3.044,3.8a.87.87,0,0,0,.869.87h7.608a.871.871,0,0,0,.869-.87v-5.325a.871.871,0,0,0-.869-.87h-3.8a.653.653,0,0,1-.462-.191l-1.33-1.33h-2.012a.87.87,0,0,0-.869.869v6.847Z" transform="translate(21 603.056)" fill="#222"/>
</svg>
