<svg xmlns="http://www.w3.org/2000/svg" width="14.943" height="11.485" viewBox="0 0 14.943 11.485">
  <g id="icon_pagamento" data-name="icon pagamento" transform="translate(0.25 0.25)">
    <g id="Raggruppa_820" data-name="Raggruppa 820">
      <path id="Tracciato_608" data-name="Tracciato 608" d="M2.5,3.047a1.482,1.482,0,0,0-1.45,1.508v7.967a1.484,1.484,0,0,0,1.45,1.51H14.041a1.484,1.484,0,0,0,1.451-1.51V4.555a1.483,1.483,0,0,0-1.451-1.508Zm0,.536H14.041a.946.946,0,0,1,.936.972V5.736H1.564V4.555A.946.946,0,0,1,2.5,3.583Zm-.935,2.69H14.977V7.609H1.564Zm0,1.872H14.977v4.376a.948.948,0,0,1-.936.974H2.5a.947.947,0,0,1-.935-.974Zm1.576,3.5a.256.256,0,0,0-.228.132.278.278,0,0,0,0,.272.256.256,0,0,0,.228.132H6.382a.269.269,0,0,0,0-.536Z" transform="translate(-1.049 -3.047)" fill="#222" stroke="#222" stroke-width="0.5"/>
    </g>
  </g>
</svg>
