<?xml version="1.0" encoding="UTF-8"?>
<svg id="Livello_1" xmlns="http://www.w3.org/2000/svg" viewBox="0 0 403.37 155.01">
  <defs>
    <style>
      .cls-1, .cls-2 {
        fill-rule: evenodd;
      }

      .cls-1, .cls-3 {
        fill: #dc0814;
      }

      .cls-2 {
        fill: #1e1b58;
      }
    </style>
  </defs>
  <path class="cls-2" d="M380.18,140.91c1.18.64,2.12,1.57,2.8,2.78.67,1.21,1.01,2.47,1.01,3.79s-.33,2.57-.98,3.76c-.67,1.18-1.6,2.11-2.78,2.78-1.2.66-2.45.99-3.76.99s-2.56-.33-3.74-.99c-1.2-.67-2.12-1.6-2.78-2.78-.67-1.2-1-2.45-1-3.76s.34-2.57,1.03-3.79c.67-1.21,1.6-2.14,2.78-2.78,1.2-.64,2.44-.96,3.72-.96s2.54.32,3.72.96h-.02ZM377.07,144.89c-.23-.07-.81-.11-1.73-.11h-.66v2.19h.66c.93,0,1.52-.04,1.75-.11.22-.07.39-.2.52-.37.13-.19.2-.4.2-.64,0-.22-.06-.42-.17-.59-.13-.18-.32-.3-.57-.37h0ZM378.49,143.87c.29.16.54.42.74.76.21.34.31.72.31,1.14,0,.57-.19,1.06-.57,1.49-.38.41-.91.66-1.6.74.25.1.44.2.57.3s.31.31.55.61c.06.07.25.4.59.99l.94,1.6h-2.01l-.68-1.29c-.45-.88-.82-1.42-1.12-1.64-.29-.23-.66-.35-1.12-.35h-.42v3.28h-1.62v-7.98h1.62c1.52,0,2.37,0,2.56.02.52.04.94.15,1.25.33h.01ZM376.48,141.42c-1.03,0-2.03.26-3,.79-.95.51-1.69,1.25-2.23,2.23-.55.96-.83,1.98-.83,3.04s.27,2.06.81,3.02c.53.96,1.27,1.71,2.23,2.23.96.54,1.97.81,3.02.81s2.05-.27,3-.81c.96-.52,1.71-1.27,2.23-2.23.54-.96.81-1.97.81-3.02s-.27-2.08-.81-3.04c-.55-.98-1.31-1.72-2.25-2.23-.96-.53-1.96-.79-2.98-.79Z"/>
  <g>
    <rect class="cls-3" x="218.52" width="13.57" height="5.18"/>
    <polygon class="cls-1" points="182.43 14.2 186.28 19.58 158.58 19.58 158.58 14.2 182.43 14.2"/>
    <rect class="cls-3" x="199.49" y="14.2" width="13.46" height="5.38"/>
    <rect class="cls-3" x="199.49" y="7" width="13.46" height="5.38"/>
    <polygon class="cls-1" points="181.14 12.38 158.58 12.38 158.58 7 177.28 7 181.14 12.38"/>
    <polygon class="cls-1" points="184.09 41.19 180.2 35.79 197.91 35.79 199.49 38.02 199.49 35.79 212.95 35.79 212.95 41.19 184.09 41.19"/>
    <rect class="cls-3" x="199.49" y="28.59" width="13.46" height="5.4"/>
    <polygon class="cls-1" points="187.59 21.4 191.44 26.78 173.68 26.78 172.14 24.66 172.14 26.78 158.58 26.78 158.58 21.4 187.59 21.4"/>
    <polygon class="cls-1" points="178.9 34 174.99 28.59 192.75 28.59 196.62 34 178.9 34"/>
    <rect class="cls-3" x="199.49" y="21.4" width="13.46" height="5.38"/>
    <rect class="cls-3" x="218.52" y="7" width="13.57" height="5.38"/>
    <rect class="cls-3" x="218.52" y="14.2" width="13.57" height="5.38"/>
    <rect class="cls-3" x="218.52" y="35.79" width="13.57" height="5.4"/>
    <rect class="cls-3" x="218.52" y="28.59" width="13.57" height="5.4"/>
    <polygon class="cls-1" points="245.52 35.79 291.83 35.79 294.02 41.19 243.38 41.19 245.52 35.79"/>
    <rect class="cls-3" x="218.52" y="21.4" width="13.57" height="5.38"/>
    <rect class="cls-3" x="218.52" y="42.99" width="13.57" height="5.4"/>
    <polygon class="cls-1" points="212.95 42.99 212.95 48.39 189.3 48.39 185.4 42.99 212.95 42.99"/>
    <rect class="cls-3" x="199.49" width="13.46" height="5.18"/>
    <polygon class="cls-1" points="277.37 0 279.47 5.18 257.79 5.18 259.87 0 277.37 0"/>
    <polygon class="cls-1" points="268.73 16.85 267.62 19.58 252.04 19.58 254.18 14.2 283.13 14.2 285.29 19.58 269.85 19.58 268.73 16.85"/>
    <polygon class="cls-1" points="282.38 12.38 254.91 12.38 257.07 7 280.22 7 282.38 12.38"/>
    <polygon class="cls-1" points="248.41 28.59 263.99 28.59 261.8 34 246.24 34 248.41 28.59"/>
    <polygon class="cls-1" points="249.15 26.78 251.3 21.4 266.9 21.4 264.71 26.78 249.15 26.78"/>
    <rect class="cls-3" x="305.55" y="28.59" width="13.5" height="5.4"/>
    <rect class="cls-3" x="305.55" y="14.2" width="13.5" height="5.38"/>
    <rect class="cls-3" x="305.55" y="7" width="13.5" height="5.38"/>
    <polygon class="cls-1" points="272.78 26.78 270.59 21.4 286.04 21.4 288.2 26.78 272.78 26.78"/>
    <polygon class="cls-1" points="275.71 34 273.52 28.59 288.95 28.59 291.11 34 275.71 34"/>
    <rect class="cls-3" x="305.55" y="35.79" width="13.5" height="5.4"/>
    <rect class="cls-3" x="305.55" width="13.5" height="5.18"/>
    <rect class="cls-3" x="305.55" y="21.4" width="13.5" height="5.38"/>
    <polygon class="cls-1" points="294.74 42.99 296.93 48.39 240.49 48.39 242.65 42.99 294.74 42.99"/>
    <rect class="cls-3" x="305.55" y="42.99" width="13.5" height="5.4"/>
    <polygon class="cls-1" points="344.84 103.96 346.84 99.83 357.34 99.83 357.34 103.96 344.84 103.96"/>
    <path class="cls-1" d="M355.59,57.38v5.4h-41c-4.62-.1-7.47-1.9-8.55-5.4h49.55Z"/>
    <path class="cls-1" d="M355.59,50.19v5.4h-49.95c-.04-.29-.07-.59-.09-.9v-4.51h50.04Z"/>
    <polygon class="cls-1" points="321.02 115.47 302.97 115.47 302.97 111.18 318.92 111.18 321.02 115.47"/>
    <polygon class="cls-1" points="326.66 127.02 302.97 127.02 302.97 122.69 324.56 122.69 326.66 127.02"/>
    <polygon class="cls-1" points="336.47 121.24 338.54 116.93 357.34 116.93 357.34 121.24 336.47 121.24"/>
    <polygon class="cls-1" points="339.27 115.47 341.34 111.18 357.34 111.18 357.34 115.47 339.27 115.47"/>
    <polygon class="cls-1" points="321.74 116.93 323.84 121.24 302.97 121.24 302.97 116.93 321.74 116.93"/>
    <polygon class="cls-1" points="333.66 127.02 335.77 122.69 357.34 122.69 357.34 127.02 333.66 127.02"/>
    <polygon class="cls-1" points="344.98 128.44 342.83 132.77 330.89 132.77 332.96 128.44 344.98 128.44"/>
    <rect class="cls-3" x="346.73" y="128.44" width="10.61" height="4.33"/>
    <polygon class="cls-1" points="342.04 109.72 344.12 105.43 357.34 105.43 357.34 109.72 342.04 109.72"/>
    <path class="cls-1" d="M255.65,105.51s.02-.07.02-.09h39.31v4.29h-39.34v-4.2h0Z"/>
    <path class="cls-1" d="M256.13,103.96c1.11-2.61,3.34-3.99,6.69-4.14h32.16v4.14h-38.85Z"/>
    <polygon class="cls-1" points="252.32 57.38 250.14 62.79 234.71 62.79 236.88 57.38 252.32 57.38"/>
    <polygon class="cls-1" points="255.23 50.19 253.05 55.59 237.6 55.59 239.77 50.19 255.23 50.19"/>
    <polygon class="cls-1" points="285.25 57.38 300.56 57.38 302.75 62.79 287.44 62.79 285.25 57.38"/>
    <polygon class="cls-1" points="299.84 55.59 284.51 55.59 282.32 50.19 297.65 50.19 299.84 55.59"/>
    <polygon class="cls-1" points="327.36 128.44 329.49 132.77 317.58 132.77 315.44 128.44 327.36 128.44"/>
    <polygon class="cls-1" points="326.05 150.04 323.93 145.73 336.4 145.73 334.26 150.04 326.05 150.04"/>
    <polygon class="cls-1" points="339.27 139.95 337.12 144.28 323.23 144.28 321.11 139.95 339.27 139.95"/>
    <polygon class="cls-1" points="342.11 134.2 339.97 138.53 320.41 138.53 318.28 134.2 342.11 134.2"/>
    <rect class="cls-3" x="346.73" y="139.95" width="10.61" height="4.33"/>
    <rect class="cls-3" x="346.73" y="145.73" width="10.61" height="4.31"/>
    <rect class="cls-3" x="346.73" y="134.2" width="10.61" height="4.33"/>
    <rect class="cls-3" x="255.65" y="116.93" width="39.34" height="4.31"/>
    <rect class="cls-3" x="255.65" y="111.18" width="10.68" height="4.29"/>
    <rect class="cls-3" x="255.65" y="122.69" width="39.34" height="4.33"/>
    <rect class="cls-3" x="255.65" y="128.44" width="10.68" height="4.33"/>
    <polygon class="cls-1" points="316.12 105.43 318.2 109.72 302.97 109.72 302.97 105.43 316.12 105.43"/>
    <rect class="cls-3" x="302.97" y="128.44" width="10.5" height="4.33"/>
    <polygon class="cls-1" points="315.4 103.96 302.97 103.96 302.97 99.83 313.36 99.83 315.4 103.96"/>
    <rect class="cls-3" x="218.52" y="57.38" width="13.57" height="5.4"/>
    <rect class="cls-3" x="218.52" y="50.19" width="13.57" height="5.4"/>
    <polygon class="cls-1" points="212.95 62.79 199.71 62.79 195.82 57.38 212.95 57.38 212.95 62.79"/>
    <polygon class="cls-1" points="212.95 55.59 194.5 55.59 190.61 50.19 212.95 50.19 212.95 55.59"/>
    <path class="cls-1" d="M197.06,99.83v4.14h-42.33c1.11-2.61,3.34-3.99,6.69-4.14h35.64Z"/>
    <rect class="cls-3" x="204.96" y="99.83" width="42.77" height="4.14"/>
    <path class="cls-1" d="M197.06,127.02h-36.36c-3.46-.41-5.48-1.85-6.08-4.33h42.44v4.33Z"/>
    <rect class="cls-3" x="186.69" y="128.44" width="10.37" height="4.33"/>
    <path class="cls-1" d="M196.78,121.24h-42.53v-4.31h35.81c3.21.22,5.45,1.66,6.72,4.31Z"/>
    <rect class="cls-3" x="204.96" y="105.43" width="42.77" height="4.29"/>
    <path class="cls-1" d="M197.06,105.43v4.29h-42.82v-4.2s.02-.07.02-.09h42.8Z"/>
    <rect class="cls-3" x="221.92" y="116.93" width="10.5" height="4.31"/>
    <rect class="cls-3" x="221.92" y="111.18" width="10.5" height="4.29"/>
    <rect class="cls-3" x="221.92" y="122.69" width="10.5" height="4.33"/>
    <rect class="cls-3" x="221.92" y="128.44" width="10.5" height="4.33"/>
    <rect class="cls-3" x="186.69" y="134.2" width="10.37" height="4.33"/>
    <path class="cls-1" d="M197.06,139.95v4.33h-42.75c-.03-.23-.05-.47-.07-.72v-3.61h42.82Z"/>
    <rect class="cls-3" x="221.92" y="134.2" width="10.5" height="4.33"/>
    <rect class="cls-3" x="221.92" y="145.73" width="10.5" height="4.31"/>
    <rect class="cls-3" x="221.92" y="139.95" width="10.5" height="4.33"/>
    <path class="cls-1" d="M189.62,150.04h-35.38v-4.31h42.71c-1.14,2.67-3.58,4.11-7.33,4.31h0Z"/>
    <rect class="cls-3" x="302.97" y="134.2" width="10.5" height="4.33"/>
    <rect class="cls-3" x="302.97" y="145.73" width="10.5" height="4.31"/>
    <rect class="cls-3" x="302.97" y="139.95" width="10.5" height="4.33"/>
    <path class="cls-1" d="M294.99,145.73v4.31h-33.04c-2.74-.51-4.78-1.95-6.13-4.31h39.17Z"/>
    <rect class="cls-3" x="255.65" y="139.95" width="39.34" height="4.33"/>
    <rect class="cls-3" x="255.65" y="134.2" width="10.68" height="4.33"/>
    <rect class="cls-3" x="43.53" y="28.59" width="13.35" height="5.4"/>
    <rect class="cls-3" x="43.53" y="35.79" width="13.35" height="5.4"/>
    <path class="cls-1" d="M43.53,7.11s.02-.08.02-.11h54.02v5.38h-54.04v-5.27Z"/>
    <rect class="cls-3" x="43.53" y="14.2" width="13.35" height="5.38"/>
    <rect class="cls-3" x="66.17" y="28.59" width="31.39" height="5.4"/>
    <rect class="cls-3" x="43.53" y="42.99" width="13.35" height="5.4"/>
    <rect class="cls-3" x="43.53" y="21.4" width="13.35" height="5.38"/>
    <rect class="cls-3" x="66.17" y="21.4" width="31.39" height="5.38"/>
    <rect class="cls-3" x="103.19" y="14.2" width="13.83" height="5.38"/>
    <path class="cls-1" d="M103.19,7.11s.02-.08.02-.11h49.9v5.38h-49.93v-5.27h.01Z"/>
    <rect class="cls-3" x="84.44" y="35.79" width="13.13" height="5.4"/>
    <rect class="cls-3" x="103.19" y="35.79" width="13.83" height="5.4"/>
    <rect class="cls-3" x="103.19" y="28.59" width="49.93" height="5.4"/>
    <rect class="cls-3" x="84.44" y="42.99" width="13.13" height="5.4"/>
    <rect class="cls-3" x="103.19" y="21.4" width="49.93" height="5.38"/>
    <path class="cls-1" d="M52.5,0h45.07v5.18h-53.42c1.39-3.28,4.17-5.01,8.36-5.18h-.01Z"/>
    <path class="cls-1" d="M112.16,0h40.96v5.18h-49.31c1.39-3.27,4.17-4.99,8.36-5.18h-.01Z"/>
    <rect class="cls-3" x="158.58" y="42.99" width="13.56" height="5.4"/>
    <rect class="cls-3" x="158.58" y="28.59" width="13.56" height="5.4"/>
    <rect class="cls-3" x="158.58" y="35.79" width="13.56" height="5.4"/>
    <polygon class="cls-1" points="158.58 0 172.25 0 175.97 5.18 158.58 5.18 158.58 0"/>
    <rect class="cls-3" x="103.19" y="42.99" width="13.83" height="5.4"/>
    <rect class="cls-3" x="158.58" y="50.19" width="13.56" height="5.4"/>
    <rect class="cls-3" x="158.58" y="57.38" width="13.56" height="5.4"/>
    <path class="cls-1" d="M153.11,62.79h-41.06c-4.52-.15-7.31-1.95-8.38-5.4h49.44v5.4Z"/>
    <rect class="cls-3" x="116.03" y="128.44" width="10.5" height="4.33"/>
    <polygon class="cls-1" points="139.13 109.72 125.63 109.72 128.72 105.43 142.26 105.43 139.13 109.72"/>
    <polygon class="cls-1" points="138.06 111.18 134.95 115.47 121.48 115.47 124.56 111.18 138.06 111.18"/>
    <polygon class="cls-1" points="116.03 127.02 112.86 122.69 129.68 122.69 126.53 127.02 116.03 127.02"/>
    <polygon class="cls-1" points="111.78 121.24 108.61 116.93 133.88 116.93 130.73 121.24 111.78 121.24"/>
    <polygon class="cls-1" points="117.87 111.18 120.97 115.47 107.54 115.47 104.39 111.18 117.87 111.18"/>
    <polygon class="cls-1" points="109.57 99.83 112.59 103.96 99.07 103.96 96.01 99.83 109.57 99.83"/>
    <polygon class="cls-1" points="129.79 103.96 132.76 99.83 146.33 99.83 143.33 103.96 129.79 103.96"/>
    <path class="cls-1" d="M153.11,50.19v5.4h-49.84c-.04-.29-.07-.59-.09-.9v-4.51h49.93Z"/>
    <polygon class="cls-1" points="116.79 109.72 103.3 109.72 100.14 105.43 113.67 105.43 116.79 109.72"/>
    <rect class="cls-3" x="154.25" y="111.18" width="10.46" height="4.29"/>
    <path class="cls-1" d="M97.56,62.79h-44.63c-4.84,0-7.82-1.82-8.93-5.4h53.56v5.4Z"/>
    <rect class="cls-3" x="45.43" y="111.18" width="10.68" height="4.29"/>
    <path class="cls-1" d="M45.43,105.51s.02-.07.02-.09h42.79v4.29h-42.81v-4.2Z"/>
    <path class="cls-1" d="M45.91,103.96c1.11-2.61,3.34-3.99,6.69-4.14h35.64v4.14h-42.33Z"/>
    <path class="cls-1" d="M97.56,50.19v5.4h-53.95c-.04-.29-.07-.59-.09-.9v-4.51h54.04Z"/>
    <path class="cls-1" d="M45.8,122.69h42.44v4.33h-36.36c-3.46-.41-5.48-1.85-6.08-4.33Z"/>
    <rect class="cls-3" x="77.87" y="134.2" width="10.37" height="4.33"/>
    <rect class="cls-3" x="77.87" y="128.44" width="10.37" height="4.33"/>
    <path class="cls-1" d="M45.43,121.24v-4.31h35.81c3.21.22,5.45,1.66,6.72,4.31h-42.53Z"/>
    <path class="cls-1" d="M80.8,150.04h-35.42v-4.31h42.75c-1.14,2.67-3.58,4.11-7.33,4.31Z"/>
    <rect class="cls-3" x="116.03" y="134.2" width="10.5" height="4.33"/>
    <rect class="cls-3" x="116.03" y="145.73" width="10.5" height="4.31"/>
    <rect class="cls-3" x="116.03" y="139.95" width="10.5" height="4.33"/>
    <path class="cls-1" d="M88.24,139.95v4.33h-42.75c-.03-.23-.05-.47-.07-.72v-3.61h42.82Z"/>
  </g>
  <path class="cls-2" d="M403.37,19.91l-38.5,68.26H47.79l-35.11,60.71c-1.69.1-3.22.04-4.59-.2-4.27-.79-6.97-3.31-8.09-7.57l38.94-67.16h316.74l35-61.04c5.57.45,9.8,2.79,12.69,7Z"/>
</svg>