<svg xmlns="http://www.w3.org/2000/svg" width="15.559" height="20.152" viewBox="0 0 15.559 20.152">
  <g id="noun-pencil-3690771" transform="translate(-7.171 -0.615)">
    <g id="Layer_19" data-name="Layer 19" transform="translate(7.48 0.946)">
      <path id="Tracciato_755" data-name="Tracciato 755" d="M1.085,16.985a.43.43,0,0,0,.617.263l3.5-1.874a.43.43,0,0,0,.192-.21L9.939,4.493h0l.83-1.948a.429.429,0,0,0-.226-.563L5.977.035a.43.43,0,0,0-.564.227L.034,12.879a.431.431,0,0,0-.018.284ZM6.035.993,9.811,2.6,9.318,3.759,5.545,2.143Zm-.827,1.94L8.981,4.55,4.659,14.687l-2.892,1.55L.884,13.078Z" transform="matrix(0.966, 0.259, -0.259, 0.966, 4.477, 0)" fill="#66c0db" stroke="#66c0db" stroke-width="0.5"/>
    </g>
  </g>
</svg>
