<svg xmlns="http://www.w3.org/2000/svg" width="13.07" height="12.206" viewBox="0 0 13.07 12.206">
  <g id="office" transform="translate(0.2 0.2)">
    <g id="Raggruppa_3648" data-name="Raggruppa 3648">
      <path id="Tracciato_933" data-name="Tracciato 933" d="M14.459,5.929H12.009c-.182-1.072-1.728-1.884-3.674-1.884s-3.5.812-3.677,1.884H2.211A.211.211,0,0,0,2,6.14V9.518A1.569,1.569,0,0,0,2.659,10.8v4.021a1.032,1.032,0,0,0,1.03,1.03h9.291a1.032,1.032,0,0,0,1.03-1.03V10.8a1.569,1.569,0,0,0,.659-1.281V6.14A.211.211,0,0,0,14.459,5.929ZM8.335,4.467c1.634,0,3.035.65,3.246,1.461H5.089C5.3,5.118,6.7,4.467,8.335,4.467Zm5.254,10.353a.609.609,0,0,1-.608.608H3.689a.609.609,0,0,1-.608-.608v-3.8l.014,0a1.573,1.573,0,0,0,.228.056h.006a1.593,1.593,0,0,0,.254.023H7.414v.346a.921.921,0,1,0,1.841,0V11.1h3.831a1.569,1.569,0,0,0,.254-.023h.005a1.539,1.539,0,0,0,.229-.057l.014,0v3.8ZM7.837,11.448V10.331a.5.5,0,0,1,.995-.026.12.12,0,0,0,0,.026v1.117a.5.5,0,1,1-1,0Zm6.411-1.93a1.154,1.154,0,0,1-.55.986l-.008,0a1.155,1.155,0,0,1-.6.17H9.256v-.346a.417.417,0,0,0,0-.058.92.92,0,0,0-1.838.058v.346H3.584a1.154,1.154,0,0,1-.6-.17l-.008,0a1.154,1.154,0,0,1-.55-.987V6.351H14.248Z" transform="translate(-2 -4.045)" fill="#222" stroke="#222" stroke-width="0.4"/>
    </g>
  </g>
</svg>
