<svg xmlns="http://www.w3.org/2000/svg" width="22.093" height="25.762" viewBox="0 0 22.093 25.762">
  <g id="noun-writing-6525909" transform="translate(-8.82 -4.94)">
    <path id="Tracciato_926" data-name="Tracciato 926" d="M30.3,15.649a1.9,1.9,0,0,0-2.69,0l-.675.675V10.7a.493.493,0,0,0-.143-.337L21.563,5.133a.454.454,0,0,0-.157-.1.473.473,0,0,0-.181-.038H10.3A1.43,1.43,0,0,0,8.87,6.416V29.227A1.43,1.43,0,0,0,10.3,30.652H25.5a1.43,1.43,0,0,0,1.426-1.426V21.7l3.365-3.365a1.9,1.9,0,0,0,0-2.69Zm-3.027,1.678,1.345,1.345-2.495,2.495,0,0-4.895,4.895-1.345-1.345,6.91-6.91,0,0,.48-.48h0ZM19.415,25.6l.927.927-1.392.466ZM21.7,6.615l3.607,3.607H22.176a.477.477,0,0,1-.475-.475Zm4.277,22.616a.477.477,0,0,1-.475.475H10.3a.477.477,0,0,1-.475-.475V6.42a.477.477,0,0,1,.475-.475H20.751v3.8a1.43,1.43,0,0,0,1.426,1.426h3.8v6.1l-7.109,7.109a.456.456,0,0,0-.109.176s0,.01-.01.01l-1.007,3.022a.468.468,0,0,0,.114.485.478.478,0,0,0,.337.138.563.563,0,0,0,.152-.024l3.022-1.007s.01,0,.01-.01a.494.494,0,0,0,.176-.109l4.42-4.42v6.577Zm3.645-11.567L29.286,18l-1.345-1.345h0l.337-.337a.951.951,0,1,1,1.345,1.345Z" transform="translate(0 0)" fill="#fff" stroke="#fff" stroke-width="0.1"/>
    <path id="Tracciato_927" data-name="Tracciato 927" d="M14.345,23.95H26.7a.475.475,0,0,0,0-.95H14.345a.475.475,0,1,0,0,.95Z" transform="translate(-2.624 -9.451)" fill="#fff" stroke="#fff" stroke-width="0.1"/>
    <path id="Tracciato_928" data-name="Tracciato 928" d="M14.345,31.95H24.8a.475.475,0,1,0,0-.95H14.345a.475.475,0,1,0,0,.95Z" transform="translate(-2.624 -13.649)" fill="#fff" stroke="#fff" stroke-width="0.1"/>
    <path id="Tracciato_929" data-name="Tracciato 929" d="M22.424,39.475A.477.477,0,0,0,21.949,39h-7.6a.475.475,0,1,0,0,.95h7.6A.477.477,0,0,0,22.424,39.475Z" transform="translate(-2.624 -17.847)" fill="#fff" stroke="#fff" stroke-width="0.1"/>
  </g>
</svg>
