<svg id="star_preferiti" data-name="star preferiti" xmlns="http://www.w3.org/2000/svg" width="11.787" height="10.945" viewBox="0 0 11.787 10.945">
  <path id="Icon_ion-ios-star-outline" data-name="Icon ion-ios-star-outline" d="M13.59,7.164H9.72L8.543,3.654a.426.426,0,0,0-.8,0L6.568,7.164h-3.9a.422.422,0,0,0-.421.421.309.309,0,0,0,.008.071.4.4,0,0,0,.176.3l3.181,2.242L4.394,13.744a.422.422,0,0,0,.145.474.407.407,0,0,0,.237.1.516.516,0,0,0,.263-.095l3.1-2.213,3.1,2.213a.493.493,0,0,0,.263.095.378.378,0,0,0,.234-.1.417.417,0,0,0,.145-.474l-1.221-3.549,3.155-2.263.076-.066a.4.4,0,0,0-.31-.7ZM10.243,9.6a.739.739,0,0,0-.268.837l.792,2.307a.106.106,0,0,1-.16.121L8.57,11.41a.735.735,0,0,0-.429-.137.721.721,0,0,0-.426.137L5.678,12.86a.105.105,0,0,1-.16-.121l.792-2.307a.741.741,0,0,0-.271-.842l-2.131-1.5A.106.106,0,0,1,3.968,7.9h2.6a.736.736,0,0,0,.7-.5l.779-2.321a.106.106,0,0,1,.2,0L9.02,7.393a.736.736,0,0,0,.7.5h2.56a.1.1,0,0,1,.061.189Z" transform="translate(-2.25 -3.375)" fill="#9f9f9f"/>
</svg>
