<svg id="star_preferiti" data-name="star preferiti" xmlns="http://www.w3.org/2000/svg" width="11.76" height="10.92" viewBox="0 0 11.76 10.92">
  <path id="Icon_ion-ios-star-outline" data-name="Icon ion-ios-star-outline" d="M13.564,7.155H9.7l-1.173-3.5a.425.425,0,0,0-.8,0l-1.173,3.5H2.67a.421.421,0,0,0-.42.42.309.309,0,0,0,.008.071.4.4,0,0,0,.176.3l3.174,2.236L4.389,13.72a.421.421,0,0,0,.144.472.406.406,0,0,0,.236.1.515.515,0,0,0,.262-.094l3.1-2.208,3.1,2.208a.492.492,0,0,0,.262.094.377.377,0,0,0,.234-.1.416.416,0,0,0,.144-.472L10.65,10.179,13.8,7.921l.076-.066a.4.4,0,0,0-.31-.7Z" transform="translate(-2.25 -3.375)" fill="#ffcd5d"/>
</svg>
