<svg xmlns="http://www.w3.org/2000/svg" width="12.2" height="13.915" viewBox="0 0 12.2 13.915">
  <g id="tecnici_icon" data-name="tecnici icon" transform="translate(0.1 0.1)">
    <path id="Tracciato_103" data-name="Tracciato 103" d="M656.874,668.137a1.042,1.042,0,0,1,.482.4,1.137,1.137,0,0,1,.175.621,1.108,1.108,0,0,1-.237.7,1,1,0,0,1-.43.32,11.184,11.184,0,0,1-.491,1.324,3.741,3.741,0,0,1-.956,1.324,1.387,1.387,0,0,1-.561.265,2.429,2.429,0,0,1-.587.055,2.547,2.547,0,0,1-.6-.055,1.327,1.327,0,0,1-.57-.274,3.881,3.881,0,0,1-.947-1.315,11.727,11.727,0,0,1-.491-1.315,1,1,0,0,1-.429-.32,1.145,1.145,0,0,1-.237-.7,1.2,1.2,0,0,1,.123-.529,1.07,1.07,0,0,1,.342-.4.194.194,0,0,1,.044-.027h0a3.578,3.578,0,0,0,.3-.21l.333.466a3.874,3.874,0,0,1-.342.237h0l-.035.027a.466.466,0,0,0-.149.173.616.616,0,0,0-.061.265.564.564,0,0,0,.114.347.354.354,0,0,0,.237.146l.184.018.053.183a10.526,10.526,0,0,0,.508,1.4,3.157,3.157,0,0,0,.789,1.114.85.85,0,0,0,.342.164,1.922,1.922,0,0,0,.473.037,2.349,2.349,0,0,0,.465-.037.749.749,0,0,0,.333-.155,3.052,3.052,0,0,0,.789-1.114,9.165,9.165,0,0,0,.508-1.406l.053-.183.184-.018a.353.353,0,0,0,.237-.146.563.563,0,0,0,.114-.347.547.547,0,0,0-.079-.3.374.374,0,0,0-.193-.164l.184-.548Z" transform="translate(-648.27 -664.361)" fill="#222" stroke="#222" stroke-width="0.2"/>
    <path id="Tracciato_104" data-name="Tracciato 104" d="M359.438,1244.027a6.158,6.158,0,0,1,3.259,1.57,4.05,4.05,0,0,1,1.3,2.9v.493H352v-.493a4.05,4.05,0,0,1,1.3-2.9,6.028,6.028,0,0,1,3.259-1.57l.17-.027.107.146a1.09,1.09,0,0,0,.187.219,1.342,1.342,0,0,0,.839.374,1.49,1.49,0,0,0,1-.329,3.118,3.118,0,0,0,.321-.292l.107-.119.152.027Zm2.866,2a5.479,5.479,0,0,0-2.812-1.4,2.445,2.445,0,0,1-.295.256,2.055,2.055,0,0,1-1.375.438,1.927,1.927,0,0,1-1.187-.53,1.153,1.153,0,0,1-.143-.155,5.457,5.457,0,0,0-2.795,1.4,3.482,3.482,0,0,0-1.125,2.392h10.857a3.482,3.482,0,0,0-1.125-2.392Z" transform="translate(-352 -1235.279)" fill="#222" stroke="#222" stroke-width="0.2"/>
    <path id="Tracciato_105" data-name="Tracciato 105" d="M620.933,320.365h0v-.009l-.009-.356.334.064a2.913,2.913,0,0,1,1.61.858,4.555,4.555,0,0,1,.924,1.433c.035.073.062.082.079.091.176.046.29.073.29.338v.137l-.106.091-1.372,1.169-.176.064H618.5l-.194-.082-1.214-1.169L617,322.9v-.128c0-.338.141-.329.352-.31,0,0-.009,0,0-.018a4.485,4.485,0,0,1,.906-1.5,2.932,2.932,0,0,1,1.645-.886l.334-.064-.009.356v.009h-.281l.044.274a2.366,2.366,0,0,0-1.337.721,3.864,3.864,0,0,0-.783,1.3.629.629,0,0,1-.1.192l.827.8h3.809l1-.849a.821.821,0,0,1-.123-.219,3.954,3.954,0,0,0-.8-1.251,2.368,2.368,0,0,0-1.32-.694l.044-.274Z" transform="translate(-614.58 -319.406)" fill="#222" stroke="#222" stroke-width="0.2"/>
    <path id="Tracciato_106" data-name="Tracciato 106" d="M920,257.766v-1.808a.966.966,0,0,1,.959-.959h0a.966.966,0,0,1,.959.959v1.808h-.584v-1.808a.375.375,0,0,0-.365-.365h0a.374.374,0,0,0-.365.365v1.808H920Z" transform="translate(-914.949 -255)" fill="#222" stroke="#222" stroke-width="0.2"/>
  </g>
</svg>
