<svg xmlns="http://www.w3.org/2000/svg" width="26.7" height="30.471" viewBox="0 0 26.7 30.471">
  <g id="Raggruppa_3325" data-name="Raggruppa 3325" transform="translate(0.15 0.15)">
    <path id="Tracciato_103" data-name="Tracciato 103" d="M663.922,668.3a2.292,2.292,0,0,1,1.061.884,2.5,2.5,0,0,1,.386,1.366,2.436,2.436,0,0,1-.521,1.547,2.2,2.2,0,0,1-.945.7,24.609,24.609,0,0,1-1.08,2.912,8.23,8.23,0,0,1-2.1,2.912,3.053,3.053,0,0,1-1.234.583,5.351,5.351,0,0,1-1.292.12,5.611,5.611,0,0,1-1.312-.12,2.92,2.92,0,0,1-1.254-.6,8.54,8.54,0,0,1-2.083-2.892,25.763,25.763,0,0,1-1.08-2.892,2.2,2.2,0,0,1-.945-.7,2.518,2.518,0,0,1-.521-1.547,2.644,2.644,0,0,1,.27-1.165,2.353,2.353,0,0,1,.753-.884.42.42,0,0,1,.1-.06h0a7.829,7.829,0,0,0,.656-.462l.733,1.024a8.512,8.512,0,0,1-.752.522h0l-.077.06a1.028,1.028,0,0,0-.328.382,1.357,1.357,0,0,0-.135.582,1.24,1.24,0,0,0,.251.763.777.777,0,0,0,.521.321l.4.04.116.4a23.16,23.16,0,0,0,1.119,3.073,6.947,6.947,0,0,0,1.736,2.45,1.874,1.874,0,0,0,.752.362,4.241,4.241,0,0,0,1.042.08,5.178,5.178,0,0,0,1.022-.08,1.652,1.652,0,0,0,.733-.341,6.717,6.717,0,0,0,1.736-2.45,20.16,20.16,0,0,0,1.119-3.093l.116-.4.4-.04a.777.777,0,0,0,.521-.321,1.24,1.24,0,0,0,.251-.763,1.2,1.2,0,0,0-.174-.663.824.824,0,0,0-.424-.362l.405-1.2Z" transform="translate(-644.994 -659.994)" fill="#fff" stroke="#fff" stroke-width="0.3"/>
    <path id="Tracciato_104" data-name="Tracciato 104" d="M368.362,1244.06a13.551,13.551,0,0,1,7.17,3.455,8.91,8.91,0,0,1,2.868,6.387v1.084H352V1253.9a8.91,8.91,0,0,1,2.868-6.387,13.262,13.262,0,0,1,7.169-3.455l.373-.06.236.322a2.411,2.411,0,0,0,.413.482,2.954,2.954,0,0,0,1.846.823,3.281,3.281,0,0,0,2.2-.723,6.849,6.849,0,0,0,.707-.643l.236-.261.334.06Zm6.305,4.4a12.056,12.056,0,0,0-6.187-3.073,5.356,5.356,0,0,1-.648.563,4.52,4.52,0,0,1-3.025.964,4.241,4.241,0,0,1-2.612-1.165,2.552,2.552,0,0,1-.314-.341,12,12,0,0,0-6.148,3.073,7.66,7.66,0,0,0-2.475,5.262h23.885a7.661,7.661,0,0,0-2.475-5.262Z" transform="translate(-352 -1224.815)" fill="#fff" stroke="#fff" stroke-width="0.3"/>
    <path id="Tracciato_105" data-name="Tracciato 105" d="M625.651,320.8h0v-.02l-.019-.783.735.141a6.41,6.41,0,0,1,3.542,1.888,10.019,10.019,0,0,1,2.032,3.153c.077.161.135.181.174.2.387.1.639.161.639.743v.3l-.232.2L629.5,329.2l-.387.141H620.29l-.426-.181-2.671-2.571-.193-.2v-.281c0-.743.31-.723.774-.683,0,0-.02,0,0-.04a9.865,9.865,0,0,1,1.994-3.294,6.45,6.45,0,0,1,3.619-1.948l.736-.141-.019.783v.02h-.619l.1.6a5.205,5.205,0,0,0-2.942,1.587,8.5,8.5,0,0,0-1.723,2.852,1.385,1.385,0,0,1-.213.422l1.819,1.767H628.9l2.206-1.868a1.81,1.81,0,0,1-.271-.482,8.7,8.7,0,0,0-1.761-2.752,5.212,5.212,0,0,0-2.9-1.526l.1-.6Z" transform="translate(-611.677 -318.694)" fill="#fff" stroke="#fff" stroke-width="0.3"/>
    <path id="Tracciato_106" data-name="Tracciato 106" d="M920,261.086v-3.977A2.126,2.126,0,0,1,922.109,255h0a2.126,2.126,0,0,1,2.109,2.109v3.977h-1.285v-3.977a.824.824,0,0,0-.8-.8h0a.824.824,0,0,0-.8.8v3.977H920Z" transform="translate(-908.89 -255)" fill="#fff" stroke="#fff" stroke-width="0.3"/>
  </g>
</svg>
