<svg xmlns="http://www.w3.org/2000/svg" width="25.536" height="26.572" viewBox="0 0 25.536 26.572">
  <g id="noun-tools-1233695" transform="translate(-10.821 -10.077)">
    <g id="Raggruppa_3330" data-name="Raggruppa 3330" transform="translate(11.04 10.291)">
      <g id="Raggruppa_3329" data-name="Raggruppa 3329">
        <path id="Tracciato_776" data-name="Tracciato 776" d="M9.123,12.553l2.02,2.662a.312.312,0,0,0,.245.153h0l1.163.275L17.386,20.3l-6.549,7.712a1.9,1.9,0,0,0-.459,1.438,1.84,1.84,0,0,0,.7,1.347l1.316,1.1a2.038,2.038,0,0,0,1.285.49,1.946,1.946,0,0,0,1.5-.7l5.478-6.427L27.455,31.8a2,2,0,0,0,2.816-.061l.826-.857a1.99,1.99,0,0,0,.551-1.408,1.924,1.924,0,0,0-.612-1.408l-7.008-6.733.765-.887a3.539,3.539,0,0,0,1.806.49A7.65,7.65,0,0,0,32.045,18a7.68,7.68,0,0,0,2.05-5.815.458.458,0,0,0-.153-.459L32.6,10.563a.446.446,0,0,0-.643.061h0L29.168,13.9a.425.425,0,0,1-.306.153.46.46,0,0,1-.337-.122l-2.234-1.9a.474.474,0,0,1-.061-.643l2.785-3.275a.446.446,0,0,0-.061-.643L27.608,6.34a.469.469,0,0,0-.52-.061A7.647,7.647,0,0,0,21.7,9.217a8.429,8.429,0,0,0-2.05,4.284,4.117,4.117,0,0,0,.765,3.275L19.039,18.4l-4.682-4.59-.306-1.071a.52.52,0,0,0-.184-.306L11.143,10.5a.463.463,0,0,0-.581.061h0L9.154,11.971h0A.505.505,0,0,0,9.123,12.553Zm21.269,16.22a1.111,1.111,0,0,1,.337.765,1.062,1.062,0,0,1-.306.765l-.826.857a1.1,1.1,0,0,1-1.53.031l-6.825-6.61,2.173-2.54Zm-9-11.752a.446.446,0,0,0-.061-.643,3,3,0,0,1-.8-2.754A7.779,7.779,0,0,1,22.375,9.8a6.862,6.862,0,0,1,4.8-2.632l.8.673L25.5,10.747a1.361,1.361,0,0,0,.153,1.928l2.234,1.9a1.333,1.333,0,0,0,.887.337h.122a1.319,1.319,0,0,0,.949-.49l2.479-2.907.8.673a6.673,6.673,0,0,1-1.836,5.141c-2.05,2.387-4.9,3.305-6.335,2.081a.446.446,0,0,0-.643.061c-.031.031-.031.061-.061.061L14.448,31.1a1.068,1.068,0,0,1-1.5.122l-1.316-1.1a1.133,1.133,0,0,1-.367-.734,1.008,1.008,0,0,1,.245-.765Zm-7.437-2.3,4.5,4.346L18,19.622l-4.56-4.376ZM10.9,11.482l2.265,1.591.245.857-.765.8-.857-.184L10.1,12.308Z" transform="translate(-9.045 -6.226)" fill="#fff" stroke="#fff" stroke-width="0.4"/>
      </g>
    </g>
  </g>
</svg>
