<svg xmlns="http://www.w3.org/2000/svg" width="308.321" height="98.944" viewBox="0 0 308.321 98.944">
  <g id="view_from_side" data-name="view from side" transform="translate(0)">
    <g id="Raggruppa_3366" data-name="Raggruppa 3366" transform="translate(0 0)">
      <path id="Tracciato_803" data-name="Tracciato 803" d="M4085.834,680.73c-.581-2.206-1.576-3.855-2.221-3.685s-.7,2.1-.117,4.3,1.576,3.855,2.221,3.685.7-2.1.117-4.3Z" transform="translate(-4074.147 -635.218)"/>
      <path id="Tracciato_804" data-name="Tracciato 804" d="M4010.06,999.078a16.707,16.707,0,0,0,2.389-.193c.365-.06.709-.124,1.029-.2.16-.039.314-.076.461-.119s.288-.087.421-.131c1.069-.358,1.677-.786,1.617-1.109s-.763-.5-1.833-.586c-.134-.011-.273-.02-.418-.027s-.3-.017-.451-.022c-.311-.009-.642-.022-.987-.024-.694-.012-1.45-.011-2.245,0s-1.551.015-2.245.038c-.346.008-.676.026-.987.04-.155.008-.306.02-.45.03s-.285.02-.418.033c-1.068.1-1.769.281-1.824.615s.561.742,1.635,1.084q.2.063.423.124c.147.041.3.075.462.112.321.075.667.132,1.032.187a16.743,16.743,0,0,0,2.391.155Z" transform="translate(-3998.16 -972.443)"/>
      <path id="Tracciato_805" data-name="Tracciato 805" d="M1090.6,302.53c15.556.29,30.369.9,43.863,1.4s25.658.812,35.873.914l7.287.052c2.3.006,4.44.038,6.439.17a35.019,35.019,0,0,1,5.48.721,13.292,13.292,0,0,1,4.208,1.652,10.471,10.471,0,0,1,2.646,2.451,20.848,20.848,0,0,1,1.513,2.269c.751,1.288,1.135,1.987,1.23,1.944a6.223,6.223,0,0,0-.727-2.2,16.659,16.659,0,0,0-1.338-2.5,10.829,10.829,0,0,0-2.709-2.867,13.987,13.987,0,0,0-4.492-2.045,34.5,34.5,0,0,0-5.679-.988c-2.042-.211-4.235-.316-6.537-.392l-7.274-.25c-10.2-.356-22.332-.875-35.811-1.513s-28.322-1.326-43.917-1.617c-7.8-.153-15.412-.188-22.762-.191-7.323,0-14.387-.158-21.112-.431-13.452-.563-25.546-1.57-35.682-2.623q-3.8-.4-7.227-.792t-6.411-.826c-1.989-.309-3.834-.628-5.513-.993s-3.193-.767-4.531-1.2a35.557,35.557,0,0,1-3.484-1.347c-.988-.447-1.808-.874-2.475-1.216a7.558,7.558,0,0,0-2.1-.953c-.048.081.564.583,1.811,1.439.627.423,1.414.936,2.39,1.475a30.542,30.542,0,0,0,3.49,1.63,45.6,45.6,0,0,0,4.585,1.468c1.7.452,3.559.852,5.565,1.24,2.006.369,4.163.725,6.443,1.049s4.692.665,7.227.993c10.143,1.309,22.274,2.526,35.791,3.234,6.758.346,13.862.562,21.229.6,7.339.041,14.934.1,22.712.247Z" transform="translate(-961.89 -236.134)"/>
      <path id="Tracciato_806" data-name="Tracciato 806" d="M194.784,47.853A128.918,128.918,0,0,0,220.07,44.7a70.826,70.826,0,0,0,11.569-3.865,107.257,107.257,0,0,0,10.336-5.364c3.268-1.881,6.4-3.768,9.5-5.469a75.545,75.545,0,0,1,9.229-4.4c.384-.146.762-.305,1.146-.438L263,24.779l1.143-.376,1.149-.305,1.139-.3c.379-.092.763-.155,1.142-.233.759-.145,1.512-.316,2.249-.4a36.451,36.451,0,0,1,4.447-.225c1.468.007,2.911.062,4.324.131,2.829.133,5.537.334,8.145.295.652-.011,1.3-.038,1.94-.1a12.564,12.564,0,0,0,1.907-.305,7.082,7.082,0,0,0,.937-.3,4.519,4.519,0,0,0,.887-.462,6.057,6.057,0,0,0,1.405-1.272,10.867,10.867,0,0,0,1.7-2.983,19.071,19.071,0,0,0,.892-2.977A26.89,26.89,0,0,0,297,9.623a22.678,22.678,0,0,0-1-7.32,10.739,10.739,0,0,0-.76-1.772c-.224-.374-.356-.552-.388-.535-.081.042.34.82.736,2.427a21.668,21.668,0,0,1,.5,3.011,28.756,28.756,0,0,1,.085,4.163,27.175,27.175,0,0,1-.748,5.136,18.361,18.361,0,0,1-.924,2.786,9.854,9.854,0,0,1-1.587,2.631,4.874,4.874,0,0,1-1.159,1,4.53,4.53,0,0,1-1.459.562,11.467,11.467,0,0,1-1.722.235c-.6.045-1.213.058-1.841.056-2.514-.012-5.206-.26-8.049-.443-1.423-.094-2.887-.174-4.394-.2a37.718,37.718,0,0,0-4.654.169c-.806.081-1.585.247-2.382.388-.4.077-.8.138-1.2.229l-1.191.3-1.2.3-1.191.375-1.2.382c-.4.133-.792.292-1.19.439a76.056,76.056,0,0,0-9.5,4.407c-3.158,1.7-6.319,3.565-9.577,5.41a107.473,107.473,0,0,1-10.172,5.2,69.51,69.51,0,0,1-11.256,3.7,129.189,129.189,0,0,1-24.878,3.055c-4.315.18-8.59.245-12.82.354s-8.377.222-12.458.287-8.082.064-12-.005l-2.92-.079c-.969-.021-1.928-.085-2.885-.124-1.914-.07-3.8-.232-5.659-.358-.93-.075-1.851-.18-2.767-.267l-1.37-.136c-.455-.046-.9-.116-1.355-.173l-2.681-.355c-.884-.139-1.757-.3-2.626-.443l-1.3-.221c-.43-.082-.853-.181-1.278-.27l-2.524-.543c-.826-.212-1.641-.437-2.451-.652l-1.211-.324c-.4-.121-.788-.257-1.18-.384l-2.327-.765L120.6,40.43q-2.26-.843-4.428-1.679-4.331-1.675-8.281-3.276C97.371,31.214,89,27.422,83.274,24.688c-1.429-.689-2.705-1.29-3.8-1.837s-2.031-.985-2.777-1.363a11.588,11.588,0,0,0-2.34-1.04,11.558,11.558,0,0,0,2.134,1.417c.714.44,1.619.946,2.687,1.548s2.314,1.269,3.72,2.017c5.631,2.972,13.933,6.984,24.41,11.437q3.928,1.674,8.257,3.415,2.163.867,4.424,1.745l2.288.872,2.384.815c.4.135.8.279,1.209.408l1.237.346c.829.229,1.663.469,2.507.694l2.574.581c.432.1.866.2,1.3.288l1.321.238c.884.157,1.775.326,2.673.474l2.723.384c.457.061.915.136,1.376.186l1.389.149c.929.1,1.863.208,2.8.292,1.884.141,3.792.318,5.724.4.966.046,1.937.116,2.914.143l2.946.1c3.948.091,7.98.12,12.075.058s8.262-.152,12.481-.255,8.507-.163,12.857-.345Z" transform="translate(5.93 50.459)"/>
      <path id="Tracciato_807" data-name="Tracciato 807" d="M3874.11,826.663a16.261,16.261,0,0,1,3.69-1.642c1.292-.438,2.56-.808,3.778-1.12a55.673,55.673,0,0,1,6.577-1.244c1.9-.245,3.451-.363,4.529-.466s1.686-.2,1.7-.349-.583-.329-1.676-.48a28.645,28.645,0,0,0-4.667-.206,39.533,39.533,0,0,0-6.9.833c-1.284.271-2.621.617-3.983,1.049a16.932,16.932,0,0,0-4.206,1.841,8.329,8.329,0,0,0-1.881,1.656,7.182,7.182,0,0,0-.71,1.052,7.812,7.812,0,0,0-.493,1.116,13.188,13.188,0,0,0-.532,2.158c-.117.688-.209,1.328-.307,1.966-.382,2.541-.7,4.834-.932,6.765-.469,3.863-.613,6.276-.323,6.326s.96-2.274,1.808-6.07c.424-1.9.893-4.165,1.381-6.688q.182-.939.372-1.921a12.091,12.091,0,0,1,.494-1.823,5.885,5.885,0,0,1,.375-.811,5.287,5.287,0,0,1,.5-.72A6.462,6.462,0,0,1,3874.11,826.663Z" transform="translate(-3866.655 -806.549)"/>
      <path id="Tracciato_808" data-name="Tracciato 808" d="M1389.713,1107.785c9.274.1,18.109.089,26.145.01,4.018-.049,7.835-.1,11.408-.181s6.9-.165,9.937-.264,5.785-.21,8.2-.32,4.489-.226,6.186-.345c3.394-.233,5.268-.453,5.263-.646-.009-.4-7.526-.564-19.669-.67l-21.326-.156-26.11-.231-26.109-.34-21.325-.31c-12.142-.158-19.662-.155-19.679.241-.008.194,1.86.455,5.248.762,1.694.155,3.767.319,6.177.48s5.152.341,8.187.5,6.359.332,9.929.481,7.386.294,11.4.43c8.032.255,16.865.456,26.139.561Z" transform="translate(-1244.484 -1089.025)"/>
      <path id="Tracciato_809" data-name="Tracciato 809" d="M1389.717,1011.034c9.272.1,18.106.1,26.141.037,4.017-.04,7.835-.08,11.406-.15s6.9-.139,9.936-.223,5.784-.178,8.2-.271,4.49-.189,6.186-.287c3.395-.192,5.269-.368,5.266-.516s-1.884-.251-5.281-.313c-1.7-.03-3.777-.051-6.189-.075l-8.2-.045-21.328-.083c-8.027-.046-16.852-.106-26.115-.2s-18.087-.236-26.113-.366l-21.325-.382-8.194-.134c-2.412-.03-4.491-.053-6.19-.061-3.4-.012-5.281.051-5.287.2s1.865.364,5.254.63c1.695.135,3.769.279,6.178.422s5.153.306,8.189.449,6.359.3,9.929.44,7.386.271,11.4.4c8.031.237,16.863.429,26.135.534Z" transform="translate(-1244.485 -985.298)"/>
      <path id="Tracciato_810" data-name="Tracciato 810" d="M3191.9,671.232a26.645,26.645,0,0,0,17.986-8.482,21.643,21.643,0,0,0,2.675-3.722q.272-.484.541-.961l.468-.977c.326-.639.56-1.3.822-1.944.137-.318.225-.649.338-.969s.215-.639.313-.956.173-.637.258-.951.176-.623.237-.935c.283-1.241.5-2.44.648-3.588a60.707,60.707,0,0,0,.344-10.87c-.133-2.553-.31-3.957-.453-3.955s-.254,1.415-.376,3.955a84.98,84.98,0,0,1-1,10.639c-.191,1.1-.443,2.246-.754,3.418-.068.3-.167.586-.255.881s-.182.593-.273.894-.215.593-.324.893-.206.608-.344.9c-.265.59-.5,1.209-.818,1.795l-.458.9-.523.878a20.252,20.252,0,0,1-2.519,3.359,23.276,23.276,0,0,1-7.29,5.261,26.593,26.593,0,0,1-9.393,2.414,25.778,25.778,0,0,1-9.619-1.1,25.116,25.116,0,0,1-7.948-4.273,29.143,29.143,0,0,1-5.665-6,32.665,32.665,0,0,1-3.5-6.342c-.438-1.024-.776-2.031-1.085-2.987-.137-.482-.29-.948-.4-1.409-.059-.229-.119-.455-.176-.678s-.1-.444-.148-.661a35.564,35.564,0,0,1-.7-4.513c-.033-.313-.059-.609-.073-.888s-.037-.538-.053-.783c-.023-.475-.043-.884-.061-1.232-.024-.667-.072-1.025-.145-1.032s-.169.339-.284,1.008c-.055.335-.094.752-.144,1.247-.019.247-.031.514-.045.8s-.024.591-.023.913a28.663,28.663,0,0,0,.36,4.7q.055.342.113.694l.141.713c.088.485.22.977.338,1.487a32.994,32.994,0,0,0,.987,3.168,32.346,32.346,0,0,0,3.451,6.8,29.89,29.89,0,0,0,5.887,6.525,26.483,26.483,0,0,0,8.541,4.732,27.292,27.292,0,0,0,10.409,1.234Z" transform="translate(-3137.689 -618.278)"/>
      <path id="Tracciato_811" data-name="Tracciato 811" d="M591.493,683.525a27.8,27.8,0,0,0,18.189-5.066,27.387,27.387,0,0,0,5.9-5.912,27.067,27.067,0,0,0,3.453-6.376,23.874,23.874,0,0,0,.925-3.025c.126-.483.2-.964.3-1.423.07-.465.146-.914.19-1.352a20.8,20.8,0,0,0,.022-4.492c-.056-.613-.163-1.151-.244-1.615-.106-.461-.2-.85-.292-1.158-.2-.615-.342-.924-.413-.907s-.072.36-.009.987l.085,1.161c.013.459.053.984.044,1.577a24.177,24.177,0,0,1-.373,4.275c-.069.411-.168.833-.26,1.268-.115.431-.212.879-.357,1.33a24.258,24.258,0,0,1-1.014,2.811,26.907,26.907,0,0,1-3.466,5.875A25.641,25.641,0,0,1,591.63,681.4l-1.183-.095c-.393-.029-.78-.107-1.168-.157l-.58-.084-.29-.042-.286-.06-1.138-.242c-.381-.069-.748-.183-1.117-.286l-1.1-.311-1.07-.38c-.355-.125-.712-.244-1.051-.4a26.618,26.618,0,0,1-7.3-4.487,26.911,26.911,0,0,1-5.06-5.932c-.311-.53-.63-1.044-.924-1.561l-.8-1.557-.672-1.543c-.211-.507-.375-1.02-.56-1.512s-.313-.99-.459-1.468l-.209-.712c-.062-.236-.108-.471-.162-.7-.1-.464-.216-.912-.3-1.352l-.2-1.285c-.079-.414-.1-.818-.143-1.207s-.074-.763-.109-1.122c-.018-.72-.053-1.38-.063-1.975.018-.594.028-1.123.033-1.584-.005-.231.023-.442.033-.636s.021-.366.031-.529c.029-.633.01-.976-.062-.99s-.194.3-.362.924l-.134.523a5.923,5.923,0,0,0-.135.638q-.108.7-.231,1.612c-.054.61-.082,1.291-.124,2.039.007.375.014.765.022,1.17s.008.83.061,1.264.085.887.13,1.352.149.938.228,1.429c.044.245.078.5.131.746l.181.757c.129.509.23,1.042.411,1.565s.321,1.074.522,1.617.427,1.093.646,1.656l.787,1.677c.291.558.612,1.114.927,1.688a27.3,27.3,0,0,0,13.066,11.424c.364.173.746.305,1.127.443l1.149.416,1.182.343c.4.113.792.236,1.2.314l1.222.265.307.065.311.047.623.093c.417.055.833.138,1.255.17l1.271.1Z" transform="translate(-353.225 -631.742)"/>
      <path id="Tracciato_812" data-name="Tracciato 812" d="M3189.171,692.084a26.509,26.509,0,0,0-3.736,1.441,24.051,24.051,0,0,0-3.412,2c-.543.368-1.052.776-1.562,1.178-.492.424-.985.844-1.443,1.3a24.37,24.37,0,0,0-2.54,2.867,24.637,24.637,0,0,0-4.943,13.5,25.965,25.965,0,0,0,.06,3.432,24.8,24.8,0,0,0,2.721,9.254,24.122,24.122,0,0,0,7.436,8.482,23.992,23.992,0,0,0,8.457,3.775,22.98,22.98,0,0,0,6.933.5,19.258,19.258,0,0,0,4.281-.837c.943-.316,1.41-.561,1.383-.647s-.547-.036-1.509.1a30.149,30.149,0,0,1-4.2.3,24.344,24.344,0,0,1-3.008-.2,22.86,22.86,0,0,1-3.492-.72,23.345,23.345,0,0,1-7.673-3.855,22.212,22.212,0,0,1-3.6-3.44,21.968,21.968,0,0,1-2.936-4.5,22.776,22.776,0,0,1-2.273-8.4,23.849,23.849,0,0,1,0-3.075,22.291,22.291,0,0,1,4.551-11.994,21.87,21.87,0,0,1,2.273-2.532c.408-.4.849-.771,1.287-1.146.456-.353.908-.715,1.391-1.038a21.5,21.5,0,0,1,3.029-1.762,22.066,22.066,0,0,1,6.8-2,21.562,21.562,0,0,1,3.5-.165c.582.01,1.157.068,1.732.118.571.078,1.142.148,1.7.264a21.706,21.706,0,0,1,3.283.893,22.281,22.281,0,0,1,10.332,7.605,23.876,23.876,0,0,1,1.668,2.584,22.791,22.791,0,0,1,2.647,8.287,21.914,21.914,0,0,1-.026,5.372,22.19,22.19,0,0,1-1.157,4.843,23.359,23.359,0,0,1-4.354,7.4,22.772,22.772,0,0,1-2.542,2.5,24.525,24.525,0,0,1-2.416,1.8,30.135,30.135,0,0,1-3.689,2.028c-.88.41-1.35.639-1.32.738s.548.039,1.513-.207a19.179,19.179,0,0,0,4.05-1.619,22.971,22.971,0,0,0,5.554-4.179,24.009,24.009,0,0,0,5.055-7.76,24.113,24.113,0,0,0,1.644-11.159,24.8,24.8,0,0,0-2.736-9.249,26.025,26.025,0,0,0-1.812-2.916,24.642,24.642,0,0,0-11.477-8.656,24.321,24.321,0,0,0-3.688-1.03c-.631-.134-1.273-.218-1.917-.307-.647-.061-1.3-.128-1.952-.142a24.036,24.036,0,0,0-3.95.174,26.6,26.6,0,0,0-3.919.816Z" transform="translate(-3142.496 -691.073)"/>
      <path id="Tracciato_813" data-name="Tracciato 813" d="M3278.359,783.213a18.022,18.022,0,0,0-5.4,2,16.751,16.751,0,0,0-2.342,1.588,17.658,17.658,0,0,0-2.03,1.9,17.886,17.886,0,0,0-4.487,9.429,18.789,18.789,0,0,0-.188,2.486,17.969,17.969,0,0,0,1.344,6.875,17.5,17.5,0,0,0,4.806,6.632,17.393,17.393,0,0,0,5.859,3.295,16.274,16.274,0,0,0,2.68.635,16.007,16.007,0,0,0,2.3.185,13.833,13.833,0,0,0,3.146-.324c.7-.168,1.055-.316,1.041-.383s-.394-.07-1.1-.042a22.167,22.167,0,0,1-3.047-.078,17.523,17.523,0,0,1-4.618-1.113,16.9,16.9,0,0,1-5.261-3.3,16.355,16.355,0,0,1-5.229-12.353,17.266,17.266,0,0,1,.208-2.212,16.026,16.026,0,0,1,29.477-5.771,17.364,17.364,0,0,1,1.027,1.97,16.493,16.493,0,0,1,1.349,6.139,15.864,15.864,0,0,1-.377,3.865,16.062,16.062,0,0,1-1.156,3.409,16.9,16.9,0,0,1-3.627,5.04,17.534,17.534,0,0,1-3.857,2.772,22.2,22.2,0,0,1-2.792,1.222c-.661.24-1.014.376-1,.453s.395.073,1.107-.037a13.8,13.8,0,0,0,3.037-.887,16.594,16.594,0,0,0,4.3-2.636,17.407,17.407,0,0,0,4.184-5.261,17.485,17.485,0,0,0,1.949-7.955,17.986,17.986,0,0,0-1.349-6.874,18.875,18.875,0,0,0-1.112-2.232,17.89,17.89,0,0,0-7.712-7.04,17.684,17.684,0,0,0-2.6-1,16.8,16.8,0,0,0-2.768-.588,18.031,18.031,0,0,0-5.759.183Z" transform="translate(-3228.131 -776.095)"/>
      <path id="Tracciato_814" data-name="Tracciato 814" d="M3420.352,940.34a7.053,7.053,0,0,0-2.027.757,6.489,6.489,0,0,0-1.633,1.319,6.191,6.191,0,0,0-1.107,1.687,6.1,6.1,0,0,0-.535,1.852,6.5,6.5,0,0,0,.483,3.465,6.255,6.255,0,0,0,1.831,2.386,5.959,5.959,0,0,0,2.168,1.106,5.133,5.133,0,0,0,1.792.178,3.418,3.418,0,0,0,.641-.1c.091-.022.175-.039.25-.063s.142-.054.2-.081c.236-.1.347-.192.332-.265s-.152-.125-.388-.161c-.059-.009-.124-.016-.2-.024l-.232-.039a5.7,5.7,0,0,1-.563-.1,5.94,5.94,0,0,1-1.434-.471,5.428,5.428,0,0,1-1.57-1.111,5.053,5.053,0,0,1-1.189-1.912,4.945,4.945,0,0,1-.186-2.51,4.349,4.349,0,0,1,.433-1.281,5.428,5.428,0,0,1,.353-.6,5.629,5.629,0,0,1,.454-.546,4.569,4.569,0,0,1,1.139-.887,4.7,4.7,0,0,1,2.877-.564,4.6,4.6,0,0,1,1.389.392,5.569,5.569,0,0,1,.625.334,5.647,5.647,0,0,1,.554.424,4.4,4.4,0,0,1,.884,1.023,4.949,4.949,0,0,1,.774,2.395,5.069,5.069,0,0,1-.38,2.219,5.439,5.439,0,0,1-1.036,1.621,5.959,5.959,0,0,1-1.15.977,5.677,5.677,0,0,1-.485.3l-.2.124c-.063.033-.122.065-.172.1-.205.123-.312.224-.3.3s.15.112.408.12c.065,0,.137,0,.216,0s.163-.021.255-.036a3.412,3.412,0,0,0,.63-.151,5.11,5.11,0,0,0,1.592-.84,5.948,5.948,0,0,0,1.591-1.842,6.249,6.249,0,0,0,.8-2.9,6.5,6.5,0,0,0-.859-3.392,6.943,6.943,0,0,0-.53-.8,6.835,6.835,0,0,0-.664-.719,7.2,7.2,0,0,0-.774-.635,7.279,7.279,0,0,0-.887-.509,6.473,6.473,0,0,0-2.01-.606,7.039,7.039,0,0,0-2.163.063Z" transform="translate(-3367.678 -922.379)"/>
      <path id="Tracciato_815" data-name="Tracciato 815" d="M611.422,693.219a26.423,26.423,0,0,0-3.889.95,24.091,24.091,0,0,0-3.64,1.542c-.586.3-1.143.635-1.7.969-.543.358-1.086.71-1.6,1.1a24.34,24.34,0,0,0-2.886,2.518,24.638,24.638,0,0,0-6.634,12.753,26,26,0,0,0-.381,3.412,24.773,24.773,0,0,0,1.51,9.527,24.118,24.118,0,0,0,6.286,9.365,23.993,23.993,0,0,0,7.9,4.828,22.991,22.991,0,0,0,6.812,1.381,19.225,19.225,0,0,0,4.352-.281c.977-.193,1.47-.376,1.455-.464s-.538-.107-1.509-.1a30.039,30.039,0,0,1-4.2-.243,24.415,24.415,0,0,1-2.957-.588,22.784,22.784,0,0,1-3.371-1.162,23.337,23.337,0,0,1-7.116-4.808,22.615,22.615,0,0,1-6.641-17.331,23.779,23.779,0,0,1,.394-3.05,22.29,22.29,0,0,1,6.052-11.311,21.758,21.758,0,0,1,2.58-2.219c.456-.346.941-.655,1.423-.971.5-.292.992-.593,1.512-.852a21.574,21.574,0,0,1,3.231-1.358,22.089,22.089,0,0,1,7-1.117A21.525,21.525,0,0,1,618.9,696c.575.084,1.139.216,1.7.339.556.15,1.113.293,1.655.48a21.814,21.814,0,0,1,3.142,1.307,22.289,22.289,0,0,1,9.27,8.867,23.9,23.9,0,0,1,1.323,2.776,22.771,22.771,0,0,1,1.564,8.558,21.98,21.98,0,0,1-.714,5.325,22.2,22.2,0,0,1-1.769,4.654,23.357,23.357,0,0,1-5.267,6.783,22.821,22.821,0,0,1-2.842,2.153,24.366,24.366,0,0,1-2.627,1.479,30.136,30.136,0,0,1-3.918,1.538c-.925.294-1.42.461-1.4.562s.539.11,1.527-.011a19.2,19.2,0,0,0,4.224-1.086,22.123,22.123,0,0,0,2.882-1.335,22.367,22.367,0,0,0,3.162-2.1,24.011,24.011,0,0,0,6.009-7.047,24.121,24.121,0,0,0,3.061-10.857,24.78,24.78,0,0,0-1.527-9.524,25.916,25.916,0,0,0-1.423-3.124,24.634,24.634,0,0,0-10.272-10.056,24.263,24.263,0,0,0-3.526-1.495c-.609-.213-1.235-.379-1.862-.551-.634-.144-1.27-.293-1.918-.391a24.027,24.027,0,0,0-3.939-.334,26.5,26.5,0,0,0-3.992.307Z" transform="translate(-374.429 -692.911)"/>
      <path id="Tracciato_816" data-name="Tracciato 816" d="M697.364,782.386a18.11,18.11,0,0,0-5.5,1.819,16.782,16.782,0,0,0-2.407,1.512,17.755,17.755,0,0,0-2.106,1.838,17.971,17.971,0,0,0-4.839,9.308,19.042,19.042,0,0,0-.277,2.49,18.073,18.073,0,0,0,1.106,6.95,17.578,17.578,0,0,0,4.59,6.829,17.481,17.481,0,0,0,5.767,3.517,16.354,16.354,0,0,0,2.668.733,16.145,16.145,0,0,0,2.3.268,13.873,13.873,0,0,0,3.171-.213c.712-.144,1.07-.279,1.059-.347s-.393-.083-1.1-.081a22.308,22.308,0,0,1-3.058-.185,17.622,17.622,0,0,1-4.6-1.281,16.986,16.986,0,0,1-5.169-3.5,16.151,16.151,0,0,1-2.271-2.816,15.946,15.946,0,0,1-1.694-3.517,16.555,16.555,0,0,1-.852-6.262,17.385,17.385,0,0,1,.286-2.215,16.111,16.111,0,0,1,29.82-4.756,17.348,17.348,0,0,1,.961,2.015,16.555,16.555,0,0,1,1.138,6.216,15.944,15.944,0,0,1-.516,3.869,16.149,16.149,0,0,1-1.283,3.383,16.97,16.97,0,0,1-3.823,4.934,17.574,17.574,0,0,1-3.973,2.647,22.243,22.243,0,0,1-2.848,1.127c-.673.217-1.032.341-1.02.419s.393.086,1.114,0a13.875,13.875,0,0,0,3.081-.784,16.69,16.69,0,0,0,4.41-2.5,17.487,17.487,0,0,0,4.387-5.136,17.584,17.584,0,0,0,2.238-7.919,18.071,18.071,0,0,0-1.111-6.95,18.878,18.878,0,0,0-1.038-2.28,17.972,17.972,0,0,0-7.5-7.341,17.7,17.7,0,0,0-2.573-1.091,16.858,16.858,0,0,0-2.758-.688,18.1,18.1,0,0,0-5.789-.02Z" transform="translate(-459.316 -775.464)"/>
      <path id="Tracciato_817" data-name="Tracciato 817" d="M850.418,933a7.247,7.247,0,0,0-1.486,1.656,6.665,6.665,0,0,0-.86,1.979,6.313,6.313,0,0,0-.206,2.064,6.3,6.3,0,0,0,.394,1.943,6.686,6.686,0,0,0,2.089,2.93,6.451,6.451,0,0,0,2.806,1.307,6.148,6.148,0,0,0,2.507-.021,5.324,5.324,0,0,0,1.723-.688,3.509,3.509,0,0,0,.54-.392c.073-.062.141-.118.2-.176s.1-.117.146-.168c.168-.206.228-.338.182-.4s-.2-.038-.429.044q-.087.031-.189.073l-.231.077a5.743,5.743,0,0,1-.562.184,6.129,6.129,0,0,1-1.541.263,5.609,5.609,0,0,1-1.978-.261,5.265,5.265,0,0,1-2.018-1.183,5.132,5.132,0,0,1-1.384-2.222,5.377,5.377,0,0,1-.163-.678,5.208,5.208,0,0,1-.057-.71,4.461,4.461,0,0,1,.189-1.447,4.744,4.744,0,0,1,.622-1.368,4.876,4.876,0,0,1,2.383-1.907,4.742,4.742,0,0,1,1.471-.308,4.466,4.466,0,0,1,1.453.133,5.322,5.322,0,0,1,.681.211,5.262,5.262,0,0,1,.627.308,5.136,5.136,0,0,1,1.865,1.837,5.243,5.243,0,0,1,.712,2.227,5.618,5.618,0,0,1-.178,1.988,6.122,6.122,0,0,1-.594,1.447,5.67,5.67,0,0,1-.3.508c-.044.072-.086.141-.126.209s-.08.117-.113.169c-.131.209-.183.351-.137.409s.188.027.426-.091q.089-.045.2-.105c.069-.044.138-.1.215-.155a3.512,3.512,0,0,0,.5-.441,5.321,5.321,0,0,0,1.048-1.53,6.143,6.143,0,0,0,.569-2.441,6.444,6.444,0,0,0-.66-3.024,6.692,6.692,0,0,0-2.4-2.681,6.31,6.31,0,0,0-1.809-.81,6.316,6.316,0,0,0-2.059-.25,6.648,6.648,0,0,0-2.119.406,7.247,7.247,0,0,0-1.941,1.088Z" transform="translate(-614.6 -913.637)"/>
      <path id="Tracciato_818" data-name="Tracciato 818" d="M32.907,680.847a9.418,9.418,0,0,1,2.744,1.413,8.175,8.175,0,0,1,1.955,2.2,15.761,15.761,0,0,1,1.863,5.6c.163.965.282,1.924.387,2.864s.2,1.865.277,2.739a20.845,20.845,0,0,1-.044,4.79,10.765,10.765,0,0,1-.471,1.981,9.506,9.506,0,0,1-.757,1.645,8.237,8.237,0,0,1-1.877,2.215,7.308,7.308,0,0,1-1.594.974c-.4.182-.621.282-.608.361s.258.11.727.052a5.213,5.213,0,0,0,1.944-.7,8.1,8.1,0,0,0,2.405-2.246,9.918,9.918,0,0,0,1.021-1.8,11.5,11.5,0,0,0,.692-2.209,20.639,20.639,0,0,0,.325-5.166c-.038-.918-.1-1.844-.175-2.806s-.167-1.963-.313-2.992a23.128,23.128,0,0,0-.657-3.168,13.643,13.643,0,0,0-1.358-3.207,10.13,10.13,0,0,0-2.448-2.8,11.341,11.341,0,0,0-3.351-1.75A21.42,21.42,0,0,0,30.07,678c-1.155-.186-2.269-.311-3.356-.448l-6.289-.754c-4.011-.467-7.626-.858-10.666-1.156q-2.282-.223-4.109-.374a12.628,12.628,0,0,0-3.22.061,4.741,4.741,0,0,0-1.936.752c-.1.073-.177.138-.245.2a1.755,1.755,0,0,0-.155.168c-.078.1-.1.158-.083.188a16.232,16.232,0,0,1,2.507-.48,14.923,14.923,0,0,1,2.984.3c1.19.21,2.557.442,4.063.686,3.015.489,6.611,1.035,10.607,1.608l6.273.878a35.873,35.873,0,0,1,6.463,1.228Z" transform="translate(266.395 -657.748)"/>
      <path id="Tracciato_819" data-name="Tracciato 819" d="M1006.408,108.328l4.654-.186c.762-.028,1.527-.064,2.288-.1l1.135-.057,1.126-.079a74.415,74.415,0,0,0,8.6-1.077,50.143,50.143,0,0,0,7.6-2.039l.865-.308.426-.154.414-.172,1.617-.675c.527-.223,1.025-.485,1.521-.719s.984-.459,1.436-.726l1.339-.747c.216-.124.435-.237.64-.366l.605-.385c.791-.513,1.555-.966,2.213-1.472l.969-.707c.308-.231.615-.438.882-.672l1.487-1.244c.451-.367.817-.733,1.137-1.047s.586-.583.8-.807c.42-.446.616-.705.567-.76s-.34.1-.847.435c-.254.169-.561.385-.919.644s-.761.57-1.244.881l-1.572,1.075c-.281.205-.6.384-.916.585l-1,.62c-.675.448-1.447.842-2.242,1.3l-.607.341c-.205.115-.424.212-.639.321l-1.332.659c-.448.238-.935.423-1.42.639s-.979.44-1.5.634l-1.584.593-.4.152-.416.134-.843.27a52.173,52.173,0,0,1-7.388,1.782,79.568,79.568,0,0,1-8.385.926l-1.1.067-1.116.048-2.27.088-4.658.176c-3.144.123-6.21.253-9.165.345s-5.8.152-8.474.049c-.666-.028-1.319-.072-1.953-.136a11.984,11.984,0,0,1-1.783-.3,2.992,2.992,0,0,1-.667-.253l-.062-.032c-.015-.01-.021-.02-.032-.028a.308.308,0,0,1-.085-.073l-.117-.126c-.038-.045-.075-.1-.112-.147a6.743,6.743,0,0,1-.774-1.426,21.521,21.521,0,0,1-1-3.211c-.258-1.069-.457-2.115-.629-3.118-.342-2.007-.563-3.848-.74-5.467s-.3-3.02-.4-4.167c-.2-2.293-.321-3.567-.472-3.567s-.3,1.276-.357,3.594c-.027,1.159-.023,2.578.038,4.226s.184,3.525.437,5.6c.129,1.037.287,2.122.514,3.252a22.2,22.2,0,0,0,.966,3.517,8.413,8.413,0,0,0,.94,1.84c.056.077.107.154.169.231l.2.228a1.9,1.9,0,0,0,.263.247c.05.041.1.086.152.121l.144.089a4.7,4.7,0,0,0,1.107.473,13.465,13.465,0,0,0,2.079.408c.687.085,1.377.145,2.072.189,2.777.163,5.654.137,8.632.078s6.05-.179,9.194-.3Z" transform="translate(-811.471 -15.867)"/>
      <path id="Tracciato_820" data-name="Tracciato 820" d="M2761.49,320.176a4.906,4.906,0,0,0-1.673-3.254,6.29,6.29,0,0,0-2.911-1.379,10.839,10.839,0,0,0-2.691-.182,11.75,11.75,0,0,0-2.291.311,5.905,5.905,0,0,0-1.832.778,3.848,3.848,0,0,0-1.091,1.063,2.122,2.122,0,0,0-.361.891c-.028.221.017.345.083.366.15.049.365-.307.893-.7a4.314,4.314,0,0,1,1.038-.569,5.943,5.943,0,0,1,1.542-.346,13.605,13.605,0,0,1,2.019-.025,10.73,10.73,0,0,1,2.24.326,4.614,4.614,0,0,1,1.962,1.016,2.952,2.952,0,0,1,.947,1.87,2.644,2.644,0,0,1-.661,1.919,3.618,3.618,0,0,1-1.812,1.051,6.53,6.53,0,0,1-2.133.175,8.983,8.983,0,0,1-1.925-.387c-1.184-.371-2.143-.828-2.833-1.1s-1.111-.385-1.19-.26.187.464.755.966a12.111,12.111,0,0,0,2.716,1.795,8.087,8.087,0,0,0,5.048.725,5.407,5.407,0,0,0,2.919-1.56,4.63,4.63,0,0,0,1.242-3.489Z" transform="translate(-2652.596 -249.296)"/>
      <path id="Tracciato_821" data-name="Tracciato 821" d="M1177.426,483.253a28.275,28.275,0,0,0,5.46-.377c1.4-.268,2.253-.652,2.239-1.037s-.879-.705-2.258-.945a36.591,36.591,0,0,0-5.4-.444,28.278,28.278,0,0,0-5.459.377c-1.4.268-2.253.652-2.239,1.037s.879.705,2.258.945A36.583,36.583,0,0,0,1177.426,483.253Z" transform="translate(-961.67 -419.17)"/>
      <path id="Tracciato_822" data-name="Tracciato 822" d="M2082.255,528.123a28.266,28.266,0,0,0,5.459-.376c1.4-.268,2.253-.652,2.239-1.037s-.879-.705-2.259-.945a36.571,36.571,0,0,0-5.4-.444,28.265,28.265,0,0,0-5.459.377c-1.4.268-2.253.652-2.239,1.037s.879.705,2.258.945A36.573,36.573,0,0,0,2082.255,528.123Z" transform="translate(-1932.145 -467.296)"/>
      <path id="Tracciato_823" data-name="Tracciato 823" d="M2041.709,101.533a107.229,107.229,0,0,0,15.929,2.341l1.894.109.936.051.929.028,1.834.054,1.8.006c1.189.017,2.355-.033,3.5-.057.57-.007,1.134-.051,1.691-.076l2.735-.133-.6-2.306q-.2-.726-.387-1.435c-.24-.871-.478-1.722-.718-2.549q-.713-2.48-1.41-4.674c-.918-2.922-1.794-5.441-2.549-7.5-1.517-4.115-2.554-6.389-2.723-6.327s.523,2.457,1.744,6.649c.607,2.1,1.344,4.645,2.135,7.584q.6,2.2,1.23,4.693l.635,2.552q.145.6.292,1.214c.027.133.055.269.083.406l-.137,0-.064,0-.341.009c-.548.012-1.1.043-1.664.038-1.122,0-2.268.027-3.436-.012l-1.769-.036-1.8-.082-.912-.041-.918-.062-1.858-.13a113.914,113.914,0,0,1-15.616-2.386A114.968,114.968,0,0,1,2022,92.889c-3.014-1.283-5.849-2.59-8.5-3.83l-7.377-3.47c-4.518-2.113-8.19-3.79-10.748-4.906s-4.005-1.67-4.07-1.538,1.257.938,3.7,2.282,6.018,3.228,10.45,5.514c2.217,1.142,4.645,2.391,7.271,3.708s5.455,2.692,8.487,4.04a107.752,107.752,0,0,0,20.5,6.844Z" transform="translate(-1909.104 -10.918)"/>
      <path id="Tracciato_824" data-name="Tracciato 824" d="M2009.266,519.658c.013-2.739.178-5.344.389-7.71q.093-.884.18-1.726c.014-.14.029-.279.042-.417s.036-.273.054-.409q.053-.4.1-.8c.072-.523.124-1.033.2-1.517s.144-.948.212-1.4c.121-.894.277-1.691.386-2.4q.081-.524.155-.99t.138-.832c.155-1.006.188-1.587.075-1.633s-.36.45-.714,1.394c-.089.236-.184.5-.284.79s-.191.614-.294.958c-.2.693-.442,1.479-.642,2.371q-.157.671-.327,1.4c-.113.487-.2,1-.3,1.532q-.075.4-.152.81-.038.207-.077.416c-.021.141-.042.282-.064.425q-.126.86-.258,1.765a66.379,66.379,0,0,0-.539,7.962,61.419,61.419,0,0,0,.524,7.977c.191,1.21.355,2.363.6,3.419.115.529.213,1.044.337,1.529s.254.943.373,1.389c.225.888.508,1.659.74,2.34.12.339.226.656.339.94s.23.538.333.766c.411.913.689,1.384.8,1.327s.04-.636-.175-1.622q-.08-.37-.188-.814l-.2-.975c-.14-.7-.336-1.479-.479-2.364l-.256-1.377c-.086-.479-.148-.985-.23-1.5-.177-1.034-.282-2.156-.424-3.328-.223-2.356-.372-4.957-.373-7.7Z" transform="translate(-1848.967 -476.661)"/>
      <path id="Tracciato_825" data-name="Tracciato 825" d="M3860.175,625.745a28.776,28.776,0,0,0-4.739-3.044l-1.212-.585c-.405-.18-.813-.343-1.213-.512s-.8-.313-1.2-.456-.791-.293-1.187-.406l-1.169-.355c-.387-.109-.771-.2-1.148-.3l-.562-.142-.558-.12-1.089-.229c-.719-.124-1.41-.253-2.079-.343s-1.309-.183-1.923-.234a44.85,44.85,0,0,0-5.816-.236c-1.373.046-2.131.161-2.137.3s.741.316,2.085.523,3.287.473,5.655.9c.594.1,1.207.236,1.85.361s1.3.294,1.986.451l1.036.273.53.14.532.16c.356.11.72.211,1.084.329l1.1.377c.375.118.737.276,1.112.419s.753.286,1.122.46.751.329,1.127.506l1.122.568a29.266,29.266,0,0,1,4.348,2.837,8.066,8.066,0,0,1,1.638,1.766,3.839,3.839,0,0,1,.463.949l.04.117.024.115a1.3,1.3,0,0,1,.04.226l.012.11.007.054c0,.013,0,0,0,.008l0,.006c0,.011,0,.027-.011.026l-.01,0-.287-.005-.635-.011-2.471-.037c-3.218-.041-6.117-.048-8.553-.023-4.871.049-7.888.227-7.9.522s2.993.649,7.853.984c2.43.168,5.324.331,8.54.48l2.47.108,1.62.062a4.547,4.547,0,0,0,.6-.02l.3-.02.074-.005.037,0h.018l.006-.018.045-.147c.059-.2.123-.393.178-.591s.1-.4.15-.6c.032-.207.036-.426.054-.64,0-.051.01-.114.009-.155l-.008-.11-.019-.219a3.067,3.067,0,0,0-.069-.428l-.045-.211-.061-.2a5.909,5.909,0,0,0-.692-1.474,9.906,9.906,0,0,0-2.07-2.267Z" transform="translate(-3832.988 -578.805)"/>
      <path id="Tracciato_826" data-name="Tracciato 826" d="M103.586,413.723a1.474,1.474,0,0,1-.135-.822.878.878,0,0,1,.353-.529,2.764,2.764,0,0,1,.9-.39,7.375,7.375,0,0,1,1.138-.186l2.415-.163c.766-.057,1.48-.118,2.132-.181,2.605-.256,4.213-.561,4.206-.855s-1.628-.522-4.242-.651c-.654-.033-1.37-.059-2.137-.078l-1.191-.025c-.416,0-.81-.017-1.294-.006a8.54,8.54,0,0,0-1.487.163,4.614,4.614,0,0,0-1.642.668,3.175,3.175,0,0,0-.763.752,2.987,2.987,0,0,0-.456,1.034,3.064,3.064,0,0,0-.035,1.1,4.185,4.185,0,0,0,.265.956,8.1,8.1,0,0,0,.81,1.467c.273.419.556.821.837,1.214.571.781,1.158,1.507,1.743,2.174a27.642,27.642,0,0,0,3.388,3.258A17.227,17.227,0,0,0,111,424.408c.662.353,1.075.472,1.159.355s-.159-.467-.65-1.011-1.228-1.284-2.1-2.227-1.875-2.079-2.9-3.407c-.514-.664-1.035-1.373-1.55-2.124-.253-.379-.511-.763-.762-1.162a6.75,6.75,0,0,1-.613-1.111Z" transform="translate(186.382 -355.596)"/>
      <path id="Tracciato_827" data-name="Tracciato 827" d="M94.192,840.53c9.216.805,16.729.983,16.78.4s-7.378-1.714-16.6-2.52-16.729-.983-16.78-.4S84.975,839.725,94.192,840.53Z" transform="translate(191.72 -803.102)"/>
      <path id="Tracciato_828" data-name="Tracciato 828" d="M3971.537,923.623a7.6,7.6,0,0,0,.542-1.248,4.333,4.333,0,0,0,.229-1.493,3.159,3.159,0,0,0-.494-1.6,3.462,3.462,0,0,0-1.149-1.1,4.671,4.671,0,0,0-1.3-.514,7.592,7.592,0,0,0-1.23-.182,17.513,17.513,0,0,0-2.2.02c-2.713.145-5.156.305-7.207.471-4.1.331-6.632.683-6.622.976s2.559.475,6.672.529c2.058.027,4.505.022,7.222-.015a17.357,17.357,0,0,1,1.968.045,3.9,3.9,0,0,1,1.624.454,1.384,1.384,0,0,1,.449.437,1.032,1.032,0,0,1,.154.545,3.629,3.629,0,0,1-.528,1.663,10.052,10.052,0,0,1-.553.9c-.208.308-.427.627-.639.925a17.373,17.373,0,0,1-1.312,1.667,7.328,7.328,0,0,1-3.036,2.12,13.844,13.844,0,0,1-3.539.573c-1.2.076-2.327.161-3.35.244-4.1.334-6.633.689-6.625.982s2.557.472,6.669.523c1.03.014,2.149.016,3.368.016a14.353,14.353,0,0,0,4.079-.469,8.4,8.4,0,0,0,2.137-1.008,10.206,10.206,0,0,0,1.829-1.562,18.088,18.088,0,0,0,1.5-1.85c.233-.322.452-.635.679-.968a11.943,11.943,0,0,0,.667-1.088Z" transform="translate(-3950.607 -898.185)"/>
      <path id="Tracciato_829" data-name="Tracciato 829" d="M3182.213,421.42c5.957,1.3,11.674,2.339,16.9,3.133s9.947,1.346,13.922,1.714c7.952.746,12.9.773,12.916.5.025-.318-4.873-.876-12.74-2-3.935-.557-8.612-1.259-13.784-2.156s-10.839-1.985-16.756-3.276c-3.518-.759-6.921-1.565-10.172-2.361-1.624-.406-3.212-.8-4.752-1.2s-3.038-.781-4.447-1.213a25.141,25.141,0,0,1-7.324-3.319,12.324,12.324,0,0,1-2.486-2.329l-.473-.636q-.238-.393-.469-.775l-.084-.141-.042-.07c-.014-.023-.025-.05-.055-.055l-.3-.121-.451-.176-.181-.07c-.05-.019-.055-.019-.085-.029l-.147-.049c-.021-.066-.042-.131-.062-.194-.041-.154-.082-.3-.121-.455q-.125-.47-.244-.916-.241-.885-.453-1.668c-.287-1.038-.541-1.923-.758-2.64-.436-1.435-.727-2.2-.844-2.174s-.048.843.179,2.326c.113.741.267,1.65.457,2.708q.146.8.313,1.7.086.453.176.932c.032.168.065.337.1.509q.081.393.163.794l1,.445.179.081.064.031.033.017.064.033a.3.3,0,0,1,.035.064c.013.028.008.024.032.07l.1.192.21.388c.159.249.329.5.5.752a13.4,13.4,0,0,0,2.682,2.758,25.6,25.6,0,0,0,7.723,3.824c1.455.486,2.964.9,4.5,1.333s3.134.856,4.764,1.283c3.263.84,6.684,1.672,10.225,2.436Z" transform="translate(-3146.062 -356.911)"/>
      <path id="Tracciato_830" data-name="Tracciato 830" d="M964.025,344.94c-.905-2.979-1.9-5.614-2.662-7.515s-1.247-3.1-1.017-3.239c.11-.068.377.147.77.6.1.113.207.238.314.383s.223.3.344.474.25.357.38.556.258.416.395.642a34.413,34.413,0,0,1,3.266,7.555l.173.574c.028.1.057.19.084.284l.076.284.294,1.118c.087.369.169.732.248,1.087s.149.705.213,1.047.128.675.18,1,.1.642.141.948q.032.23.062.451t.048.437c.03.285.057.559.082.821s.039.511.051.748.021.46.028.669a10.749,10.749,0,0,1-.015,1.076c-.038.593-.12.926-.249.94s-.291-.289-.474-.847c-.092-.279-.184-.622-.3-1.019q-.083-.3-.168-.636c-.057-.226-.113-.464-.181-.713s-.131-.511-.2-.783c-.033-.136-.067-.275-.1-.416s-.074-.284-.112-.431q-.11-.439-.228-.906c-.078-.311-.168-.629-.251-.957s-.169-.664-.267-1-.188-.69-.285-1.044-.206-.712-.312-1.076l-.078-.275-.085-.274q-.084-.275-.17-.555Z" transform="translate(-728.849 -281.178)"/>
      <path id="Tracciato_831" data-name="Tracciato 831" d="M2976.551,536.146c.239-1.274.523-2.507.841-3.688s.684-2.3,1.06-3.359a40.051,40.051,0,0,1,2.422-5.44c.405-.744.8-1.4,1.158-1.971q.275-.423.517-.781t.464-.637l.2-.266c.066-.082.13-.158.19-.226.119-.139.223-.254.312-.344.178-.179.294-.258.343-.226s.026.171-.059.408c-.043.118-.1.26-.175.425l-.121.264-.136.3c-.1.212-.208.446-.332.7s-.248.535-.388.833c-.277.6-.587,1.278-.914,2.036-.659,1.514-1.361,3.348-2.028,5.418-.324,1.038-.642,2.134-.934,3.281s-.551,2.344-.781,3.577q-.083.462-.166.921t-.144.911c-.012.075-.024.151-.036.226s-.021.151-.031.226l-.062.449c-.021.149-.041.3-.062.445s-.035.3-.052.443c-.033.294-.073.585-.1.873s-.057.575-.085.859-.046.564-.07.842c-.011.139-.022.277-.033.414s-.017.274-.025.41q-.024.407-.049.8t-.031.784c-.013.258-.018.512-.023.762s-.011.5-.018.739c-.006.969,0,1.874.021,2.7.006.207.011.409.017.605s.017.388.023.575c.017.372.026.725.048,1.053s.032.636.046.918.031.54.041.774.016.44.023.622,0,.334,0,.46c-.011.251-.045.389-.1.4s-.134-.107-.229-.34q-.072-.175-.157-.437c-.057-.173-.118-.375-.175-.6s-.121-.485-.187-.765-.121-.588-.185-.917-.119-.685-.178-1.061c-.028-.189-.062-.382-.085-.582s-.049-.4-.075-.615c-.1-.84-.174-1.766-.228-2.761q-.012-.373-.026-.76c-.009-.258-.018-.519-.017-.784s0-.535,0-.808.01-.55.016-.83c0-.14.007-.281.01-.423s.013-.284.02-.428c.014-.287.025-.578.045-.871s.044-.589.066-.888.057-.6.085-.9c.015-.152.031-.3.047-.458s.038-.306.057-.461.039-.309.058-.464c.01-.078.02-.155.03-.234s.023-.155.035-.234q.07-.468.143-.942t.168-.951Z" transform="translate(-2891.657 -493.392)"/>
    </g>
  </g>
</svg>
